/* XPM */
static char *_b4c63b836db4c57ecc4c7c4db78978agM930xN57EUkrIcV[] = {
/* columns rows colors chars-per-pixel */
"64 64 256 2 ",
"   c #110C16",
".  c #04162C",
"X  c #05192D",
"o  c #08192B",
"O  c #161829",
"+  c #051B33",
"@  c #0A1B34",
"#  c #0B1D3A",
"$  c #061734",
"%  c #171B36",
"&  c #0B0E22",
"*  c #261727",
"=  c #30182D",
"-  c #0C233C",
";  c #0D2A3C",
":  c #092736",
">  c #13243B",
",  c #132B3C",
"<  c #1A2D3B",
"1  c #162536",
"2  c #14333C",
"3  c #1C343C",
"4  c #173639",
"5  c #0C2931",
"6  c #25263A",
"7  c #23353C",
"8  c #322637",
"9  c #25141B",
"0  c #491B24",
"q  c #502932",
"w  c #6B2E2C",
"e  c #21403C",
"r  c #735739",
"t  c #0E1D46",
"y  c #0B2C44",
"u  c #072A46",
"i  c #142C43",
"p  c #1A2C44",
"a  c #1B2C4B",
"s  c #142847",
"d  c #0B3345",
"f  c #0B334C",
"g  c #093647",
"h  c #133344",
"j  c #1C3343",
"k  c #14334B",
"l  c #1B344B",
"z  c #193A48",
"x  c #182B56",
"c  c #0C3954",
"v  c #1C3353",
"b  c #173957",
"n  c #0B2B55",
"m  c #262C45",
"M  c #223544",
"N  c #233A45",
"B  c #24344C",
"V  c #243C4A",
"C  c #2A3C4B",
"Z  c #2B3446",
"A  c #363749",
"S  c #242B58",
"D  c #233553",
"F  c #233C54",
"G  c #2B3B53",
"H  c #28395A",
"J  c #353B56",
"K  c #372C4B",
"L  c #1A3963",
"P  c #1E2B60",
"I  c #273A65",
"U  c #36396A",
"Y  c #302E70",
"T  c #311E51",
"R  c #493451",
"E  c #4A3170",
"W  c #5D2768",
"Q  c #1C4249",
"!  c #1A4558",
"~  c #124956",
"^  c #26454B",
"/  c #294658",
"(  c #344657",
")  c #335257",
"_  c #1A4665",
"`  c #1F526F",
"'  c #284765",
"]  c #374764",
"[  c #385A65",
"{  c #304D6D",
"}  c #3B666C",
"|  c #346357",
" . c #4B4D59",
".. c #714C4F",
"X. c #475567",
"o. c #514F6E",
"O. c #6A5572",
"+. c #5A6878",
"@. c #577576",
"#. c #4C6B6E",
"$. c #656A79",
"%. c #6D7078",
"&. c #44615F",
"*. c #912C30",
"=. c #EF1611",
"-. c #D5112D",
";. c #F3102A",
":. c #E12C12",
">. c #F06018",
",. c #863D4B",
"<. c #E42354",
"1. c #915150",
"2. c #B15452",
"3. c #8F5669",
"4. c #B35967",
"5. c #906E73",
"6. c #B06B70",
"7. c #A96A5C",
"8. c #CF5957",
"9. c #E45B59",
"0. c #E3635D",
"q. c #EA635C",
"w. c #F8675B",
"e. c #EA5E64",
"r. c #F05F64",
"t. c #D96868",
"y. c #DB7478",
"u. c #CE6F6D",
"i. c #E46463",
"p. c #EA6463",
"a. c #E66969",
"s. c #E96E71",
"d. c #D85F5F",
"f. c #B15418",
"g. c #3AFD19",
"h. c #37F92E",
"j. c #4AF717",
"k. c #6EFB17",
"l. c #4AF42C",
"z. c #74F12B",
"x. c #6C9177",
"c. c #4CED52",
"v. c #52E86D",
"b. c #60E16D",
"n. c #6DB918",
"m. c #B69F20",
"M. c #FCA433",
"N. c #8DF92E",
"B. c #A7FC26",
"V. c #FAFD19",
"C. c #EBFF1C",
"Z. c #FCCE39",
"A. c #CDFE2E",
"S. c #FCFA2A",
"D. c #F9F230",
"F. c #C4FF16",
"G. c #A98972",
"H. c #EDA76B",
"J. c #F6F94B",
"K. c #F0E658",
"L. c #A4EB75",
"P. c #35318B",
"I. c #1F24A8",
"U. c #4F3589",
"Y. c #703490",
"T. c #5E30B2",
"R. c #2B5F9B",
"E. c #4B4788",
"W. c #70438B",
"Q. c #5C6A84",
"!. c #517091",
"~. c #676B86",
"^. c #677688",
"/. c #76778B",
"(. c #7252A7",
"). c #2C0FD2",
"_. c #3909FC",
"`. c #3410F2",
"'. c #2228CF",
"]. c #4419E1",
"[. c #7856EB",
"{. c #6847D5",
"}. c #98329B",
"|. c #D234A0",
" X c #8D4A8E",
".X c #A75197",
"XX c #8C748F",
"oX c #A57B8A",
"OX c #8E4AA6",
"+X c #B24FB1",
"@X c #9F75B2",
"#X c #D37582",
"$X c #D150B0",
"%X c #E15DA4",
"&X c #A55ED1",
"*X c #CF54CD",
"=X c #EB54CD",
"-X c #D06DD2",
";X c #EC6FD0",
":X c #FA7AF8",
">X c #EE72E8",
",X c #DE67E4",
"<X c #D33FC9",
"1X c #369791",
"2X c #75868F",
"3X c #59A1A1",
"4X c #5ED18B",
"5X c #908D96",
"6X c #AD9195",
"7X c #9195A6",
"8X c #AF96AB",
"9X c #9BB5BC",
"0X c #B1ADB3",
"qX c #C9908C",
"wX c #F19692",
"eX c #F796A7",
"rX c #C9ADB2",
"tX c #F4ACB0",
"yX c #D3A0A5",
"uX c #9BFD8B",
"iX c #ECD1BE",
"pX c #E6DCA7",
"aX c #9BBCC4",
"sX c #A6BAC6",
"dX c #BFB9C5",
"fX c #B690FF",
"gX c #9F96E9",
"hX c #D090CB",
"jX c #F190D9",
"kX c #D3B2CD",
"lX c #EBB3D0",
"zX c #F491F2",
"xX c #D1B3EF",
"cX c #F2B2F2",
"vX c #DD8EE3",
"bX c #B1C7D0",
"nX c #B3FED7",
"mX c #D1C9D1",
"MX c #F1CFD6",
"NX c #F8F0D5",
"BX c #F9CBE8",
"VX c #F9D7E8",
"CX c #FCCAFD",
"ZX c #FFDCFE",
"AX c #FAD7F9",
"SX c #E9D1EB",
"DX c #FAE5EA",
"FX c #FBF9EB",
"GX c #FFE4FE",
"HX c #FFECFE",
"JX c #FAE8F6",
"KX c #FEF4FE",
"LX c #FEFCFE",
"PX c #FAF8F7",
"IX c #EBF5F0",
"UX c #D6E8DC",
/* pixels */
"j : y g g ; u f u : : u g g g z U a c ~ ~ u u y > 3 i x L I L b b I i - . 2 V F l h y z z y ^ ) ) z b F D u - . . + 2 4 2 2 X & ",
", h z g g ; u : u : u g g g c z I H 2 2 g u k - - z F F I L L b s > + + . - / l i k i ; ; ; z Q z h k z F u u $ X + ; 4 2 2 5 o ",
": h b g u g i y - u g g g g d k H B A O <  .V i : 2 p p S I I x v $ $ @ . < ] h i z l i h h z z h 5 y l F - # + + , 5 4 4 5 5 5 ",
". d g ; y d i i y s d g g u g k ' J 9 0 =   1 m . + o - s a a H D $ $ + . @ / i y i i l h , z 4 4 , h l b u + + : 2 , z Q 5 4 o ",
": f f u u d , p p y y u u u g b ' Z ..qX4.q 9 T o : 5 2 1 $ t J H m p # s > D B s l i k h , 3 4 2 2 i j F - + + @ > 5 2 z 2 z ; ",
"u u g g d h p a p ; ; y g u f c ' O 6.t.t.6.q 8 O : 5 2 % O % B H H a s < # s a D G D i , h z 2 3 4 3 j F - @ $ . X . 5 5 5 2 ; ",
"u u c g d h B Z M p u y g u u f C q u.t.a.y.4.= * < 5 : 8 8 T 1 J H D D G D B l a D p - - , j 2 , 3 4 p G > @ @ + . . . X X + X ",
"f f c c y h M m m < : u f u n k Z R u.0.9.t.#X,.8 A g 5 % T K 6 p S m H D J G D s s y j p ; 4 3 < 3 4 j ( s @ $ @ . X X X X X + ",
"u c ~ Q d i p K K m p y f u c D 8 q y.p.i.a.e.%Xw = ; ; # T 8 K m s s t B l # s D s s B p > 3 3 3 3 j 1 G p . . @ X . . o X $ @ ",
"~ f c c k j p Z B m a y y u n v 8 R y.p.i.p.e.y.4.= 4 h s 6 8 6 m x a m a a y t H a s a , , 2 3 3 3 7 < Z p $ $ @ o . o $ o $ - ",
"c f Q c z z p M m p > i y u k B = w y.i.i.i.i.a.y.1.9 < s % K = D v D v x v v v I a s s , 1 < 3 7 3 7 < B p $ % $ o o o @ X + - ",
"c ~ ` ~ g k m B G m i i - u y m * 1.y.p.0.i.p.e.a.y.q O > @ 8 T J v b v v / H v F x s p j < 4 4 7 3 M p m p $ @ . @ $ o o . $ > ",
"c ~ } ` g l j B D m y y y i l G 9 1.y.e.0.0.i.i.e.t.6.9 & % % m D f c v n l k t x v a a p , < 7 4 7 7 3 p s @ @ X o o o @ X + : ",
"Q Q ! ~ ~ d p G B p - ; y h l A 9 3.y.q.q.0.a.i.e.e.s.,.9 O & x b n f u - u u x b H v s i 1 < 7 7 4 7 3 p m @ @ X @ @ X o + $ @ ",
"g g Q ~ z g k G J D , - ; ; i 6 * 3.u.0.q.q.i.i.q.q.9.y.q 9 # c ! b f u u u u b b H v y i < < 7 7 3 j M < B # @ $ @ o X o @ @ @ ",
"4 5 g 2 g h h F H a y y l l j m 9 7.t.0.w.q.i.0.p.9.r.a.1.9 p L _ c n f c c u x x H k s p p 1 7 N 3 j M p G > @ @ @ + X @ @ + + ",
"5 2 4 2 Q ~ 5 g v i + v / F ^ m 9 6.t.e.p.q.0.0.0.q.q.9.y...O ( L n c n ~ g u _ v H a p i Z 1 N 3 7 3 N < D % $ # t $ $ $ # + - ",
"Q 4 2 5 5 5 5 5 ; # x ' ] F ^ 6 0 6.t.p.p.q.0.i.p.q.w.0.a.4.q A ` t L 3X` c u ' b H H D B 1 Z < < 1 < 7 1 C > # @ # # $ t + - u ",
"2 5 4 ~ [ } ) 2 : < F ^ ] +.[ 1 9 6.a.p.p.0.0.i.i.d.q.q.i.#X3.= v b F { L L n _ L L H b i < 4 3 7 < < N 1 D < # @ t % $ # - y i ",
"Q | } x.x.@.} ) 2 ; C  .Q.Q.] Z 0 6.t.e.q.q.i.i.0.p.0.q.a.t.6.R % s v y b c n _ _ ' I a p 5 e 3 N 7 7 7 < D B # $ # # # @ # i a ",
"x.x.} } ` } } Q 5 7 &.+.^.o.< K 0 u.t.0.p.q.p.r.e.r.0.0.a.e.y.3.* O < , m v u _ ' b { t G < 5 Q 4 < < < 1 G G @ $ @ # # $ # u i ",
"~ | | ~ ~ ~ 2 : 4 +.%.@.@.X.p 6 0 u.t.t.i.q.r.r.e.i.d.a.p.s.a.u. .7 ( 1 M 3 # y I s J J @ p Q 2 4 3 M < 5 C G $ @ @ s # @ - - - ",
"} } } | [ / g 2 #.@.@.@.#.Z s 6 0 u.t.i.i.i.p.i.0.i.t.e.r.r.0.y.5.7 $. .^ < Z % K 7XK O Z 1 i ^ ^ M M M > m G $ $ $ # - $ # - @ ",
"| x.@.[ ~ d g ) @.x.%.#.( i p O q u.t.i.i.i.i.i.t.y.u.8.8.8.0.u.6.5. .7 4 7 1  .0X8X8XO 1 1 F l N < 3 C p M ( > @ $ # - $ @ - X ",
"e ^ e g ; f l ) #.&.#.#.Q : f % w y.i.i.i.0.a.a.u.2.1.6.tXeX8.8.u.tXmXmX5Xe 9 ) 5.0XmX8 * 6 ( l N N : V M 1 G > % $ @ @ @ @ # + ",
"4 e 4 4 k l ; [ ^.2X@.) 4 c ! Z *.s.i.i.a.i.a.0.2.H.NXMXqX6.2.t.8.4.1...x.  #.0X5X6XVXR   6 N z N N @ < p o G < @ @ # @ @ # @ + ",
") ) ) g l l > #.$.&.| e + ; [ X.,.y.i.i.a.0.d.8.2.tXu.2.2.t.d.d.s.e.u.w   x.bXsX0X%.UXq O 7 7 ^ z N 3 < < 5 G p o @ % @ @ @ @ $ ",
") [ ) z h V G #.#.#.#.( 2 { #.C r u.a.i.a.a.0.0.8.2.4.#X#Xd.H.s.9.e.#X6...UX9X9XbX2XkX8 9   7 2 N V G j M 1 C M @ @ > @ @ @ @ @ ",
"^ ^ ^ ^ 4 z ) &. .x.@.N N ) } R 1.p.e.e.e.i.9.9.t.#X#X4.6.4.2.t.t.d.u.6.r 5X9XaXbX2X0XbX7X& N z N z ^ M C < M p @ @ # 1 @ + @ @ ",
"( ^ Q ^ ^ e @.&.+.+.+.( V / #. .2.p.s.p.e.i.9.8.t.4.6.lXBXBXyX7.u.u.2.qX8X0X2X7XbXx.mX5XO O M C ^ j C < C p p M 1 > 1 @ @ + @ @ ",
") ) / Q e | x.2X2X$.@.( X.@.@.= 1.p.r.e.i.s.t.H.6.qXJXHXDXPXFXpX7.1.MXFXLXLXLX0X5X%.O   6 M D D C z C l V 3 1 G 1 1 @ @ @ @ # @ ",
"[ } } 4 e ^ #.#.&.X.( M ( C Z 8 4.y.t.d.2.8.2.1.7.NXPXPXKXDXFXFXrXpXFXFXPXPXLXLX0XO 7 1 C B D G G j ^ N C M 1 ( < 1 1 : @ @ # @ ",
"! / / / / l i h - - : h p @ 6 9 1.7.7.oXoX6.yXG.yXFXFX0XmXFXPXFXFXmXFXFXFXPXrX%.SX( ( # m M z Q ^ 4 ( N 7 ( O C 5 1 : : X X @ @ ",
"c g f k n s y f u u : X % & O R rXMXVXDXVX6XNXyXiXFXPX..6XFXIXLXFXrXmXpXFXLXMXrXKXm J J 6 < h g Q z ^ N Z 7 3 7 1 5 ; : - @ $ $ ",
"f d d k f y s s y > < &  .0X8X7X8X6XrXJXmXqXMXoX0XKXFXPXPXPXIXLXNXG.G.u.5.rXLXLXUX .Z > G J h ^ Q ^ N 7 N 6 ^ < < 5 ; X + y $ t ",
"f f c c f d f i p o * #.SXSXDX0XO.kXJXVXMXqXNXrX5XLXLXFXUXLXIXIXrXG.eXtXtXoX6XUX5XkX0X .% 6 V z Q ^ N N M M ( 2 X h : y k t s t ",
"b b c f f g l h O +.%.rXNXmX6XG.JXZXVXHXyXyXrXkX8X/.9X5X6X7XdXpXG.tXwXeXeXeXO.6XrX6X7X0XXX* J D z ^ N N 3 / ^ , d k x n n x n n ",
"b b c c ! k d < ^.mX5.kXMXrX5.DXJXZXBXZXyXtXVX3.5XkXUXSXFXMXmX5.yXwXeXeXtXtX7.DXVXVXDXrXrX@X6 ( C V ^ z 3 ( 2 ; d u k I c b L x ",
"c b f c b d y ) mX5X .mXMX5.MXDXrXDXGXAX6XBXyX0XPXPXJXKXNXNXIX0XG.tXtXeXwXwX1.MXtXlXMXkXO.kXR K C N C 3 j / < : ; { L 3X!.L !.n ",
"b ! k b b - ^ 2XsX%.%.mXMXoXG...rXVXGXkX8XVXoX@X7X2X@X@X6Xx.x.x.r G.wXH.H.f.w *.*.*.2.tXoXK  .R A C C < ^ ^ j , h ; ` !.!.n L n ",
"_ ~ ' b p ] +.2X2X7XaX+.SXSX5.kXHXMXGX8XlXBXBXCX&XP I.I.!.4Xc.c.k.n.m.m.m.Z.M.f.:.-.-.eXHXXXR  .A A 7 C ( C 5 , ; k b I H x P P ",
"~ c / B B ^.+./.2XbXaX5X%.5XrXGXVXJXAX8XBXMXBXZXfX).`.).R.3Xv.h.j.k.A.J.S.J.Z.>.:.=.;.-.BXVXO.R  .A Z C ( 3 ; - - y a v x I I I ",
"' ! ^ s +./.o.] 3XbXbXbX2XXXPXVXAXGXSX8XSXBXVXZXfX).`.).I.1Xv.h.g.l.N.K.D.S.D.M.:.=.;.-.y.GXoXR A R m J ( , y ; i # s a I U Y ' ",
"} ` , ( /.~.+.( bXaXaXaX/.SXDXAXZXAXkX8XBXBXBXGX&X)._._.'.'.4Xv.h.c.z.A.S.S.S.Z.>.=.;.;.<.VXcXO.E X.H ( C + @ : - # S U U U P Y ",
"! b i ~.~.~.o.~.sXaXbX2X2XHXVXkXZXZXkXrXAXMXBXZX{.)._._.`.'.1X4Xh.h.j.B.A.S.V.D.M.:.=.;.;.r.%X3.o.U K v x u s v + s U ] { o.P Y ",
"z - ] ^.E./.X.2XmX9XbX^.bXIXSX8XZXGXhXyXVXBXGXxXgX'._._.`.`.R.4Xc.h.j.k.A.C.V.S.Z.>.=.;.;.-.|..XW U S S I ' I H u U E.U E E.Y P ",
"/ i !.Q.Q.^. .^.bX9XbX2XmXHXO.5XKXVXtX6XMXBXCX8XJX&X)._.`.'.R.3Xc.h.j.k.B.C.C.V.Z.>.=.=.;.<.%X$XY.o.] { { { L n x o.E.Y E P.Y T ",
"v F Q.Q.Q.^.X.2XbX9X9X7X$.XXXX5XPXMXDX6XVXBXhXxXGXxX)._._.`.'.R.v.l.j.j.B.C.V.V.D.M.:.=.=.;.<.%XY.E.E.E.I b L t I U o.E P.T t P ",
"z / ^.+.~.~.Q.X.bXsXsXsXsXbX7X$.IXDXJX8XlXBXlXCXAXAX[.).`.`.'.R.4Xl.j.j.k.F.V.V.D.M.>.=.=.=.<.<.W.(.E.P.L L c u Y U E U.Y Y P n ",
"2 [ @.~.~.~.Q.E 2XsXsXsXaXsX2X .DXSXGXVXoXBXZXSXAXZXfX).`.`.`.I.4Xc.g.g.k.B.C.V.D.Z.>.=.=.;.<.|.+X(.P.` P.n u s E U.T.U.P.Y P S ",
", ] Q.~.~./.~.O.U Q.2XsXsXmX7X5.kXHXVXGXSX8XkXZXAXZXcX).).`.`.'.1Xc.h.g.j.B.S.V.S.Z.>.;.=.;.<.=X*X(.U.P.Y n t Y O.(.OXOXU.E T T ",
"/ S /.+.~.~.~.~./.o.X.X.X.+.#.O.6XDXSXDXHXSX8X8XlXBXAX{.'.`.`.'.1Xv.g.g.j.N.C.V.V.Z.>.=.=.;.;.%X$X(.E.L P T T Y.+X*X-X&X}.W E R ",
"] s Q.Q.~.Q.~.~.~.^.^.o.o.~.O.W.O.SXKXZXSXHXHXmXrXdXxX[.)._.`.'.R.4Xh.g.l.N.C.C.V.D.M.:.=.;.-.|.*XOXU.P P S T }.*X,X:X>X+X XE E ",
"I H ] ^.~.Q.^.$.+.~.^.o. .~./.8XXX@XGXGXJXJXVXJXHXGXJXfX)._.`.'.R.v.l.j.l.z.A.S.S.D.M.:.=.;.;.<.$XY.P.Y Y E Y.}.*X,X:X:X,X.XW T ",
"} !./ Q.~.+.+.+./.+.+./.W O.@X-XzXvXhXGXDXFXHXJXSXKXKXSX]._._.).R.4Xc.h.j.k.F.C.S.D.Z.:.=.=.=.<.;X$XY.U.W U.}.*X:X:X:X:X>X&XY.E ",
"R.!.{ ] Q.~.+.^.+.$.~.XXW.T OX@X,XzX+XlXHXKXGXGXHXKXPXJXT.).`.).R.3Xv.l.l.k.F.V.V.D.Z.>.=.=.;.<.=X*XOXY.Y.}.<X=X:X:X:X:X:X-XOXW ",
"_ _ / l ^.@.+.%.O.%.O.XX XO.+X-XzXzXzXcXjXBXHXPXHXIXPXPX{.).`.`.I.3X4Xc.l.z.F.V.V.S.Z.>.:.=.;.;.=X,X*X&X+X+X*XjXzXzX:X,X,X*X}.E ",
"u u y - #.%.%.%.%.%.XX@X.X.XzXcXzXcXzXzXCXjXkXcXHXPXKXKX[.).`.'.'.aXnXuXb.N.A.V.S.D.K.tXw.;.-.<.=X:X,X-X,XjXjXCXHXCXzX,X*X|.,.Y.",
"! / v , ( X.+.o.O.O.3..X.X$X;X>X>XzX-XcXGXHXVXkXhXhXkXKXxX{.'.).'.gXIXnXuXz.A.J.J.pXpXNXeX<.-.<.jXBXcXhXcXCXGXKXHXKXcX,X<X<X}.<X",
"' ' l : 1 6 8 K q R W .X+X%X=X=X=X<X*XZXGXJXKXHXCXxXhXJXJXIXgX'.I.gXIXIXUXuXK.pXpXNXFXFXH.*.d.tXHXHXAXAXHXKXHXLXLXGXcX:X<X|.<X<X",
"' b u $ o @ O O = T W .XjXzX:X:X>X*X*XzXKXKXLXLXLXLXPXKXHXLXKXxX(.xXPXIXFXUXNXpXNXFXFXFXrXtXVXPXFXLXLXKXKXLXLXPXLXCXvX,X<X<X=X>X",
"_ _ b F F l 1 % % 6 E W hXzX:XzX:X:XzX-XCXKXKXLXLXKXKXKXKXPXLXLXLXPXLXJXLXPXLXLXFXIXPXLXLXKXKXLXLXPXKXLXKXJXLXKXHXGXZXzX<X<X=X>X",
"_ _ ` ! / b F F U U o.W.&X-X;X>X>X=X;X>XjXcXcXcXCXAXCXCXZXHXHXAXPXJXGXHXKXHXKXKXHXHXHXGXGXZXGXGXGXHXGXZXAXAXCXcXzXjX;X%X|.}.}.+X",
"` ` b u ~ b k k D G E U. XOX+X+X*X*X>X-X>XzXzXzXjXjXjXzXcXvXvXcXxXxXBXSXMXBXSXxXSXMXxXlXcXcXcXlXcXcXxXjXjXhX-X;X%X;X%X|..X X X X"
};
