/* XPM */
static char *_38278f1438b460f8658f0b6c42b3e75QbDCrTzMhL1bn1Gl[] = {
/* columns rows colors chars-per-pixel */
"64 64 244 2 ",
"   c #5E444D",
".  c #654C55",
"X  c #6A5E60",
"o  c #766D71",
"O  c #6F6667",
"+  c #A25E6D",
"@  c #A76675",
"#  c #916371",
"$  c #DC5A7C",
"%  c #E3587E",
"&  c #EB7175",
"*  c #E4BF05",
"=  c #EC9B3F",
"-  c #E9BF31",
";  c #EEC51C",
":  c #FCD226",
">  c #E7C435",
",  c #F5C839",
"<  c #F4C828",
"1  c #E08D41",
"2  c #F7B64F",
"3  c #EE866A",
"4  c #D48864",
"5  c #F9CA46",
"6  c #F7CC56",
"7  c #F7CD52",
"8  c #FAC966",
"9  c #FED67C",
"0  c #FED56A",
"q  c #F5FC78",
"w  c #F9FE6E",
"e  c #867D83",
"r  c #B57483",
"t  c #DF5C81",
"y  c #E35D84",
"u  c #EB5D84",
"i  c #EE5D88",
"p  c #F55B88",
"a  c #FF5B92",
"s  c #DD6184",
"d  c #DC6D8C",
"f  c #DA6586",
"g  c #C8788E",
"h  c #DD728E",
"j  c #DA7687",
"k  c #CD7D94",
"l  c #DD7392",
"z  c #DB7A94",
"x  c #D67B95",
"c  c #E46285",
"v  c #EA6184",
"b  c #E56489",
"n  c #EB658A",
"m  c #E56B8D",
"M  c #EC6A8D",
"N  c #F2638B",
"B  c #FB638D",
"V  c #F36B8D",
"C  c #F66A87",
"Z  c #E97C89",
"A  c #F0778B",
"S  c #EC6D92",
"D  c #E56F91",
"F  c #F56791",
"G  c #FD6592",
"H  c #F36C93",
"J  c #FC6C95",
"K  c #FE6E99",
"L  c #FF6598",
"P  c #E47493",
"I  c #EB7394",
"U  c #E47B96",
"Y  c #EB7699",
"T  c #E47D9A",
"R  c #EB7C9B",
"E  c #E87697",
"W  c #F37394",
"Q  c #FB7196",
"!  c #F4759A",
"~  c #FD729A",
"^  c #F27B9A",
"/  c #F8799C",
"(  c #E876A1",
")  c #FE76A3",
"_  c #7DD8AF",
"`  c #76D9CF",
"'  c #70DDE6",
"]  c #7AE3D5",
"[  c #9A9598",
"{  c #868082",
"}  c #AD8C96",
"|  c #BCB9B9",
" . c #AAAFB4",
".. c #A1A7AE",
"X. c #CC8B9B",
"o. c #DC829B",
"O. c #D8879A",
"+. c #C89297",
"@. c #E5839C",
"#. c #E8839B",
"$. c #E88C8D",
"%. c #F6B589",
"&. c #E9A998",
"*. c #F5A59B",
"=. c #EDB891",
"-. c #F2BA95",
";. c #EBB289",
":. c #D88FA2",
">. c #D898A8",
",. c #ED8CA5",
"<. c #E888A4",
"1. c #F98BA6",
"2. c #EE95AD",
"3. c #E795A7",
"4. c #F49AA9",
"5. c #EA9CB3",
"6. c #F49BB2",
"7. c #FB9DB5",
"8. c #CFA1AB",
"9. c #DEADBA",
"0. c #D6A8B3",
"q. c #D7B3BA",
"w. c #CEB2B7",
"e. c #EAA5AC",
"r. c #F5A4A6",
"t. c #EBACBB",
"y. c #E6A8B6",
"u. c #F3A1B6",
"i. c #FDA4B3",
"p. c #F4A6BA",
"a. c #F3ABBC",
"s. c #F9A8BA",
"d. c #E5B4BD",
"f. c #F5B5B9",
"g. c #82D69B",
"h. c #9FE69A",
"j. c #AEE696",
"k. c #8BDBAD",
"l. c #B0EDA4",
"z. c #EECB85",
"x. c #F6CB8C",
"c. c #FADB8D",
"v. c #F9CD93",
"b. c #FDD597",
"n. c #EECA90",
"m. c #DAFF99",
"M. c #FEED8B",
"N. c #E7FD8C",
"B. c #F9FB8A",
"V. c #FEE791",
"C. c #E1FB97",
"Z. c #FCF798",
"A. c #FFD9A6",
"S. c #FED7B8",
"D. c #FFCFB3",
"F. c #CEFCA2",
"G. c #E5FFA7",
"H. c #FFEDA4",
"J. c #98BDC3",
"K. c #DAB9C4",
"L. c #FCABC2",
"P. c #F4ADC2",
"I. c #ECB5C1",
"U. c #ECBBC5",
"Y. c #E7BAC7",
"T. c #F3B4C3",
"R. c #FDB4C4",
"E. c #FEB6CA",
"W. c #F3BDCA",
"Q. c #FDBACB",
"!. c #F7BAC6",
"~. c #EABCD1",
"^. c #FEBED0",
"/. c #F5BDD8",
"(. c #E9AEC0",
"). c #85CFD5",
"_. c #82D8D1",
"`. c #AFC2C6",
"'. c #86E1CF",
"]. c #C6D3D9",
"[. c #D7D4D5",
"{. c #D2C7CA",
"}. c #EDC2CB",
"|. c #EFCACC",
" X c #F3C4CC",
".X c #FDC2CD",
"XX c #FFCDCC",
"oX c #FDC7C6",
"OX c #FCD2C5",
"+X c #FDD4CD",
"@X c #F8D6C8",
"#X c #E9CAD7",
"$X c #FDC5D3",
"%X c #F5CCD4",
"&X c #FDCDD5",
"*X c #F4CBDA",
"=X c #FECEDA",
"-X c #F8C3D3",
";X c #EDD4DB",
":X c #ECDBDC",
">X c #E8D6D8",
",X c #F4D3D5",
"<X c #FED2D6",
"1X c #F4D9D3",
"2X c #FCDAD6",
"3X c #F4D5DA",
"4X c #FED3DA",
"5X c #F4DBDC",
"6X c #FCD9DD",
"7X c #EFD8C6",
"8X c #FFE7D3",
"9X c #FFF9D6",
"0X c #EAE0DE",
"qX c #FDCEE2",
"wX c #FCCEE8",
"eX c #E6DDE5",
"rX c #FED4E2",
"tX c #FDDBE3",
"yX c #FFDCEA",
"uX c #F5D9E4",
"iX c #E9E6E7",
"pX c #F5E2E4",
"aX c #FCE3E5",
"sX c #FCE8E7",
"dX c #FEE4EB",
"fX c #FDEBEC",
"gX c #F3E9EA",
"hX c #ECF5EF",
"jX c #FEF2EC",
"kX c #FFF8E9",
"lX c #ECECF1",
"zX c #FEECF3",
"xX c #FFECF9",
"cX c #FCE9F2",
"vX c #ECF9F5",
"bX c #F4F4F4",
"nX c #FEF3F4",
"mX c #F4FAF6",
"MX c #FEF9F6",
"NX c #FEF5FB",
"BX c #F5FEFD",
"VX c #FDFDFD",
"CX c #F5F5FA",
"ZX c #D4DEE7",
/* pixels */
"<X<X<X<X<X<X<X4X=X<X<X<X4X<X<X=X4X=X=X4XrX4X1X@X1X@X9 0 b.S.&XrX3X=X3X%X3XrX%XU.9.rX$X=X X0.%X4XrX*X0.1X,X@X<X+X<X,X3XuXZX].J.J.",
"<X<X<X<X4X<X<X<X<X<X<X<X<X<X<X4X<X=X=X=X4X3X1X1X4XS.0 6 x.D.<X4X4X3X=X3X4XtX3X$X9.4X=XI.d.~.rX*XrX-X0.3X,X+X+X+X<XXX3XuXeXZX`.J.",
"<X<X<X<X<X<X<X<X<X<X<X<X<X4X<X4X<X=X&X<X<X<X1X+XXXA.6 , 6 V.S.7X<X=X<X=X3X4X4X4X}.U.-XU.U.<X4X4X4X%Xq.6X2X<X<X<X<X<X4X,XeXlX`.`.",
"4X<X<X<X<X<X4X<X<X<X<X4X<X<X<X<X<X<X+X+X=X<X+X@XOXb.7 < 7 9 A.S.XX=X&X<X=X=X4X4X=X9. X&X=X4X%XrX4XU.d.4X<X<XXX<X<X&X<X*X#XlXeX].",
"<X<X<X<X<X4X<X<X<X<X<X4X<X4X<X<X<X1X+X+X<X<X+X+X@Xv.5 ; > 8 A.@X<X&X<X<X<X*X<X,X%X X&X4X<X6X<X&X4XU.U.6X4X<X%X&X=X=XqX4X*X:XeXeX",
"<X<X<X<X<X=X4X<X4X<X<X<X<X<X<X<X<X1X+X+X<X4X6X2X@Xv.> ; > 7 v.S.<X=X=X&X4X,X<X,X4X4X4X4X=X4XrX&XrXI..X6X<X6X=X4X=X=X=XrXrX#X;X;X",
"<X<X<X4X<X<X<X<X=X<X<X<X<X<X<X<X4X<X,X@X1X6XdXfX8Xv.5 : < 6 c.S.OX=X<X,X6X6X5X,X3X4X<X<X<X&X%X4X4Xd.<X4X%X6X4XrX=X=XW.=XrX<X<X%X",
"4X<X<X<X<X<X<X<X<X<X<X<X4X<X<X4X3X4X@X@X3XpXnXnX8Xz.> ; ; , 9 A.@X4X6X6XsXfXaX1X1X<X<X&X4X6XXX<X<Xd.,X%X}.3X*X4XrX-X0.y.&X<X<X,X",
"<X<X<X<X<X<X<X<X<X<X<X<X<X4X<X4X*XyX,X|.5XzXVXkX9Xc.; ; * < 0 v.S.3X0XsXnXMXjX1X5X4X<X<X<X<X&X<X&X<X%X|.K.w.0.q.Y.(.} +.f.<X&X<X",
"<X4X<X<X<X=X4X<X<X<X4X<X<X<X4X=XrXwX4X4XdXzXfXkX9Xc.> : : < 6 b.7X:XsXnXnXMXjX1X1X,X,X<XXX&X<X4X<X4X6X4X4X*X,X=X3XY.0.0. X<X&X<X",
"<X<X<X4X<X<X<X<X<X4X<X<X<X<X<X4XrX#XrX%X*XNXNXjX8Xn.2 2 , - 8 D.7X0XjXVXVXMXnX5X5X2X<X<X&X&X<X<X<X+X<X1X2XrX3X3XtX%X%X}.d.<X6XXX",
"<X4X<X<X<X<X4X<X<X<X<X<X<X<X4X4XqX*XrX=XyXxX*Xy.+.4 3 1 1 2 8 D.1XjXMXMXMXVXjX5X4X4X<X<X<X<X&X<X<X,X%X<X1X4X1X%X,X4X6X%Xd.U.<X<X",
"<X<X4X=X<X4X<X<X<X4X<X<X4X<X<X4X*XtX&X&XwXP.k O.<.U Z 3 3 3 4 f.8XVXbX>XgXNXaX6X1X%X&X&X<X<X<X1X<X<X<X<X<X<X<X+X<X,X3X2X,Xd.Y.4X",
"<X<X<X<X<X<X<X<X<X<X<X<X<X<X<X=X<X%X&X$X5.x z P f b K C & & x y.cXNX:Xw.pXNXdX6XrX4X=X<X<X4X<X4X<X<X+X<X&X&X+X<X<X<X,X<X6X|.9.|.",
"<X<X<X<X<X<X<X<X<X<X<X4X<X4X<X<X,X%X<XR.z E W $ G L ) a & A x 5.xXdX{.w.aXNXyXY.&X=X=X4X<X,X3X4X4X4X<X<X&X+X<X<X@X6X<X%XrX4X}.Y.",
"<X<X<X<X4X<X<X<X4X<X<X<X<X<X<X4X<X4XR.o.E W $ J K a a p C Z :.=XxXuXK.Y.yXzX%XX.t.E.$X4X<X<X1X,X<X<XXX&X<X<X+X+X<X<X<X3X4XrX4X4X",
"4X4X<X4X=X<X<X<X<X+X<X<X,X<X<X$X<X$X2.I H $ A W N y a L W x 0.xXdX~.K.Y.zXNXW.k l ,.p.=XrX%X1X3X2X<X1X<X<X<X<X<X<X<X<X<X<X4X4X<X",
"4X4X<X<X<X<X<X<X,X<X<X<X<X4X-X9.T.3.f y V n ^ I D H K G D o.-XNXrXY.9.|.zXxXT.x I D ,.u.$X=X4X1X5X<X<X4X4X<X<X<X<X<X<X<X<X<X<X<X",
"4X4X4X4X<X<X<X<X+X,X<X,X4X4XU.:.x h M J N W R U l Y K K ~ l /.xXyXK.K.3XnXzX(.g S b d o.s.4X4X<X1X<X<X<X<X<X<X<X<X<X<X<X<X<X<X4X",
"4X4X4X=X<X<X<X<X<X,X,X<X4XrXW.>.g U E P d ,.p.Q.P.<.l d l k $XxXNXeX#XyXVXnXU.k I S t P ,.$X&X<X<X<X<X4X<X<X<X4X<X&X<X<X4X<X<X<X",
"<X3X4X<X<X<X2X<X<X<X4X4X=X=X4X$X>.y.>.>.U.fXjXNXnX5XY.0.(.}.zXVXVXBXlXnXVXVX4X5.P ! y S R u.&X<X<X<X<X=X<X<X<X<X<X<X<X<X4X4X4X<X",
"4X4X<X<X<X<X<X<X4X<X4X4X*X3XdXzXNXNXzXnXVXMXhXvXVXVXNXnXCXVXNXBXBXBXVXVXMXVXzX$XR W J y A #.Q.<X=X<X<X<X<X<X<X<X<X<X<X<X<X<X<X<X",
"4X4X<X<X<X<X<X1X<X<X5X4X5XaXnXNXnXNXVXVXMXmXVXiX[.VXzXVXNXNXCXVXvXBXVXVXMXNXNXyX<.D ~ y b U 4..X=X<X<X<X<X<X<X4X4X4X<X<X<X<X<X<X",
"<X<X<X4X<X<X<X<X1X<X3X5XpXnXVXMXVXVXVXVXmXBXMX[ [ VXxXNXCXVXVXCXBXBXVXVXVXNXVXyX3.m ~ G % 1.h R.&X<X<X<X<X4X4X4X<X4X<X<X=X<X<X<X",
"&X&X&X&X<X4X4X<X6X,X;XpXjXVXVXBXVXvXBXBXhXVX[.X {.VXzXVXxXNXxXCXvXVXNXNXVXVXNXaXO.#.~ B v A 1.Z .X4X<X=X4X4X<X3X4X4X4X4X<X4X=X<X",
"=X=X&X<X<X4X<X<X,X%XtXMXVXBXBXBXBXBXvXBXVX| o X } VXxXuXZXK.#X#XcXCXVXVXVXbXVXfXX.U J B v c C #.e.$X4X&X=X4X4X<X3X4X4X<X=X=X=X=X",
"&X=X<X<X&X<X<X<X%X4XfXnXNXVXBXBXVXBXVXVXbXMXiX}   } # . r #X~.~.uXCXVXNXBXVXVXtXX.P Q J V % v #.O.y.$X=X%X<X<X<X4X<X<X4X<X=X<X=X",
"=X<X<X=X<X<X<X<X<X&XtXzXNXVXBXBXVXNXVXVXMXVX[.o |   } uX*X~./.~.#XxXNXVXNXVXVX%XO.R J G V v v W T O.p.^.=XrX=X4X<X<X4X4X4X4X=X4X",
"&X<X<X<X1X<X<X&X$Xd.U.dXNXNXCXVXVXVXMXnXNXVX0X{.lXe zXxXK.~.~.~.#XNXVXVXVXVXzXW.x W G B V V v v ^ P ,.i.E.^.R.$X=X4X=X4X4X4X4X<X",
"&X<X<X<X<X<X&XXXT.t.(.-XyXNXVXVXNXVXVXVXVXVXVXBXbXlXnXnXcX#X#X#XxXiX[.lXVXVXzXy.E ~ G p V Q C % y b I d <.2.3.t.=X=X<X<X=X<X4X4X",
"<X4X<X<X4X4X&XQ.a.R.R.t.Y.dXNXNXVXVXMXMXVXbXiXBXBXvXVXVXCXcXxXxXNX[ `.BXbXxXdX:.D J G a M A Q B u i n $ h z x L.=X=X4XrX4X4X4X4X",
"4X4X4X<X4X4X&XQ.T.p.P.T.(.(.*XdXnXVXNXVXMXVXMXvXmXBXBXbXNXVXNXVXe ..BXBXVXNXW.x S B J B v A ~ J J G F y R ( x $X=X=X=X4X4X4X*X4X",
"*X4X4X4XrX4X XI.!.X.g !.E.t.T.I.}.1XuXzXnXVXBXMXVXbXVXVXVXVX[.o [ VXBXmXNXzX5.E u ~ K G N N / I W Y ~ ) D T p.$X4X=X=X<X=X&X&X=X",
"3X4X3X4X4X4X$XI.T.# r R.:.@ p.T.y.d.%X6XaXjXNXVXnXVXbXiX{.e o  .BXVXBXmXVX=Xo.m i ~ Q J a N ! R @.z l l T 7.$XqX<X<X<X4X<X=X<X&X",
"4X6X4X4X4X4X$X!.T.@ X.Q.r + f.P.I.|.<X3X3X5XpXpXnXgXVXeX[ | VXNXVXvXCXnXNXt.z m n K J K B N W 1.p.p.u.u.s.$X4X<X3X4X4X$X%X4X4X,X",
"4X4X4X<X4X4X&X-Xf.d.d.T.X.>.!.t.U. X<X4X3X3X5XuX:X>XeXVXVXVXVXVXvXBXVXVXtX>.T s V J Q ~ J v D 4.=X$X=XqX=X=X,X,X6X5X4X<X<X4X3X5X",
"4X4X4X<X4X4X=X&XU.&Xd.t.t.T.t.I.W.%X&X<X4X3X3X;X:XpXzXCXNXVXVXlXBXVXCXVX^.x E y S J K J J v m 1.=X&X$X=X<X4X;X;X,X3X=XrX4X4X5XuX",
"4X4X%X3X4X4X4X4X=X-X X!.&X!.!..X<X4X<X=X=X4X3X,X;XuXnXVXVXVXVXVXBXVXbXxXP.d ( n M Q ~ J Q M s #.R.=X4X&X4X6X2X3X3X4X=XrX4X=X,X;X",
"4X4X<X<X4X4X=X4XrX&X6X&X=X$X<X&X4X<X=X=X4XrX6XuXuXzXNXVXVXVXVXvXBXVXVXyX,.Y ~ n n W ~ G ~ H s U ,.E.=X&X4X<X%X=X4XqX$XE.E.=XrX4X",
"4X<X4X4X4X<X<X<X<X&X<XrX&XrX4X<X=X<X4X<X<X3X4X3XuXVXNXVXVXVXBXBXBXCXNX*X( K J F b Q K B K ~ y m I 1.7.R.$X$X.X$XL.L.2.x 3.Q.qX=X",
"<X<X<X<X<X<X<X<X<X<X4X<X<X=X<X<X<X=X4X6X,X3XuX3XzXNXVXVXVXVXBXBXBXVXVX^.E K L K t H K p ~ ~ n $ H W U U @.@.@.R #.I P T 5.^.wX&X",
"<X<X=X4X<X<X4X<X<X<X<X<X<X<X4X<X4X4X4X4X<X,XuX5XnXNXVXVXVXBXBXBXBXVXnX/.z K H K y H L p J ~ H N $ v W R U I I W H ~ P R L.=X=X=X",
"<X<X<X<X<X4X<X<X<X4X<X4X<X4X<X<X4X4X4X5X3X1X5XsXnXVXVXVXBXBXBXBXBXVXNX/.x ) K H v n J a B J ~ Q V c $ s M V N p F ~ D @.Q.rX4XuX",
"<X<X<X<X<X<X<X<X<X<X<X<X4X4X<X<X%X4X3X4X6X;X:XzXVXVXVXBXBXVXBXBXBXVXVX=Xx R ) Q H c H G a G ~ Q Q W M v y i B G G K Y 2.$X4X,X5X",
"<X<X<X4X<X4X<X<X<X4X<X<X<X4X<X<X<X4X<X3XuX5XpXnXVXVXVXBXVXBXVXBXBXVXVXdX>.x I ~ W y V ~ p G J H H ~ ) / ! K J ~ ~ I ,.R.=X%X,X,X",
"4X<X<X<X<X<X<X<X<X<X<X<X<X<X<X<X&X=X4X4X3X5XgXVXVXVXVXVXBXVXVXBXVXCXVXVX~.:.d ~ ! y M / N G G N J F H W ~ ~ G N W E 7.=XrX=X&X&X",
"<X<X<X<X<X<X<X4X<X<X<X<X<X<X<X<X<X=X4X3X1X5XjXNXVXVXVXVXVXVXVXVXBXBXmXVXdXW.<.Y ! t m ! u J J G p a G F c y n I R 6.Q.<X<XXXR.R.",
"<X<X<X<X<X<X<X=X<X<X<X=X4X<X<X<X4X&X<X3X,XpXnXVXVXVXVXVXVXVXVXVXCXVXCXVXVXzXL.P W c m ! u J ~ J L G i n M I U h 2.$X4X.X$XR.u.4.",
"=X<X4X4X<X<X<X<X<X<X<X<X4X<X<X<X4X&X<X2X,XsXVXMXVXVXVXVXVXVXVXVXNXVXVXVXVXnXrX3.D b H ) y H ) K ) ) K I A Z @.y.<X1X,XoXi.7.7.s.",
"&X<X<X4X<X<X4X<X<X<X<X<X<X<X<X4X4X%X<X2X1XfXNXMXVXVXVXVXVXVXVXVXVXVXCXVXVXVXxXT.l S H ) y Y ! H ( Y f j $.r.D.4X,X2XoXy.2.i.i.3.",
"<X&X<X<X<X4X4X<X<X<X<X<X<X<X<X<X4X&X<X4X3XsXVXMXVXVXVXVXVXVXVXVXVXVXmXVXCXVXNXqXz ! K K t Y / R ( <.,.i..X&X&X<X<XoXp.r.4.*.-.-.",
"<X<X<X<X<X4X4X<X<X<X<X<X<X4X<X<X<X&X,X1X3XsXNXMXMXVXVXVXBXVXVXVXBXVXVXVXVXVXVXyX<.( ~ F i I 1.7.L.E.^.$X=X=X=X&X$Xs.2.i.r.;.z.Z.",
"<X<X<X<X<X4X<X<X4X<X<X<X<X<X<X<X<X<X<X,X2X0XnXMXVXVXVXVXVXBXVXVXBXBXVXVXVXMXVXdX<.Y K i H E L.=XqXqX=X=X$X=X*X=Xs.i.4.4.=.n.M.B.",
"<X<X4X<X<X<X<X<X<X<X<X4X<X4X<X<X<X<X<X1X1X5XfXMXMXVXVXVXVXVXVXBXBXVXVXBXBXBXMXnX5.E Q u D U Q.rX4X*X=X=XrXrX4XW.u.7.4.&.=.V.q w ",
"%X,X<X6X<X<X<X<X<X<X<X<X<X<X4X<X&X<X<X<X,X1X:XsXMXMXVXVXVXVXVXVXVXBXVXMXBXMXnXdX5.E n m h 3..X&XrX<X&X=XqXrXqXI.p.r.*.-.c.Z.q q ",
" X.X<X4X<X<X<X<X<X<X<X<X<X<X<X=X&X&X<X%X3X,X1X5XjXnXnXMXVXMXMXMXMXVXVXMXVXVXfXyX5.l s E x L.=X&X,X,XrXrX*X=X-Xy.e.&.=.n.M.B.B.N.",
"=X4XrX4X4X4X4X4X=X4X4X4X4X4X<X=X&X<X<X<X<X<X4X5X5X5XdXfXnXnXnXnXnXnXnXgXiX0X2X&X3.U d o.e.Q.=X<X<X<X4X*X4X&XR.r.y.&.;.V.B.N.G.j.",
"<X4X<X%X4X4X4X<X=X<X<X4X<X=X<X<X<X&X&X<X<X4X4X3X,X,X3X5X6XtX6XuX4X6X5X:X:X0X,XQ.x z o.5.!.<X<X&XXX<X3X3X4XXXs.r.r.=.9 Z.N.C.l.k.",
"Y.4X4X&X4XtX4X4X<X=X4X4X4X<X<X=X&X&X&X<X<X<X<X4X,X<X3X,X1X3X3X4X<X<X4X3X5X5X%X!.<.2.s.$X<XtX<X&X&X<X3X5X<Xf.r.4.r.;.c.Z.N.F.k.` ",
"0.%XtX<X4X<X<XrX4X<X<X4X4X4X<X&X&X&X<X<X<X<X<X<X4X<X4X4X4X<X4X4X4X4X4X4X4X3X&X$XQ.^.$X<X4X2X<X=X&X+X2X2X+Xf.r.4.*.%.Z.B.m.h.` ` ",
"0.|.6X<X<X%X&X<X<X<X4X4X4X4X=X<X<XXX<X<X<X<X<X<X,X,X<X<X<X<X<X<X<X<X<X<X<X<X4X<X<X=X=X=X1X4X4X=X=X=X<X+XOXf.4.*.*.v.Z.N.l.g.] ' ",
" X X<X4XtX4X<X4X<X=X4X4X<X4X<X<X<X<X<X<X<X<X<X<X<X<X<X<X4X<X<X<X3X<X4X&X&X<X4X4X&X%X=X<X4X4X=X=XqX4X+X+XoXf.r.*.;.H.Z.m.l._ ` ' ",
"}.y.Y.&X4X=X4XrX=X4X4X=X4X=X=X<X,X<X<X<X2X<X<X<X<X<X4X4X<X<X<X,X5X4X<X=X&X&X<X2X<X<X4X4X4X4X=X=XwXrX+X@XoXa.e.e.;.H.G.l.k.'.` ).",
"8.} 8. X}.}.$X=X=X=X4X=XrX4X=X4X<X1X<X1X+X<X<X2X<X<X<X<X<X&X<X4X1X1X&X=X=X<X4X1X6X2X4X<X<X4X=X=XwXrXOXOXD.f.0.&.n.Z.G.h.k.'.).)."
};
