/* XPM */
static char *_68df2b9b08849db9eeb54d74f1d15fdURstHpILJppwVWHg[] = {
/* columns rows colors chars-per-pixel */
"64 64 256 2 ",
"   c #150D0A",
".  c #0B1E1A",
"X  c #1C1C1C",
"o  c #171717",
"O  c #0E100A",
"+  c #26171B",
"@  c #300C12",
"#  c #092B18",
"$  c #18241B",
"%  c #043A16",
"&  c #10310F",
"*  c #29380A",
"=  c #2E2F0F",
"-  c #2A1D22",
";  c #381C24",
":  c #03262A",
">  c #1C2624",
",  c #0C312E",
"<  c #222322",
"1  c #2B2C2C",
"2  c #282727",
"3  c #34262A",
"4  c #26322C",
"5  c #2B3533",
"6  c #383836",
"7  c #34302D",
"8  c #1F1520",
"9  c #480C0B",
"0  c #540727",
"q  c #481925",
"w  c #561A35",
"e  c #4E172B",
"r  c #492634",
"t  c #4A2930",
"y  c #6E2B34",
"u  c #750E39",
"i  c #16440F",
"p  c #324335",
"a  c #2F6C36",
"s  c #235C26",
"d  c #4D5A2E",
"f  c #6D5D25",
"g  c #596427",
"h  c #69612F",
"j  c #3E3F41",
"k  c #573345",
"l  c #692946",
"z  c #732F44",
"x  c #125051",
"c  c #2F5453",
"v  c #2B6150",
"b  c #35686E",
"n  c #14635D",
"m  c #57484D",
"M  c #5C5255",
"N  c #5A595A",
"B  c #544B4C",
"V  c #674A55",
"C  c #65575B",
"Z  c #764952",
"A  c #4B6D54",
"S  c #656754",
"D  c #6F6C4C",
"F  c #5B5B63",
"G  c #665B63",
"H  c #795866",
"J  c #537474",
"K  c #4E6D6B",
"L  c #656364",
"P  c #6A696A",
"I  c #76666A",
"U  c #677673",
"Y  c #787474",
"T  c #706B71",
"R  c #853333",
"E  c #80123F",
"W  c #84722A",
"Q  c #8C3350",
"!  c #A22858",
"~  c #CF3E7C",
"^  c #8D485A",
"/  c #984665",
"(  c #8A546A",
")  c #A44868",
"_  c #B25076",
"`  c #886B76",
"'  c #AE6563",
"]  c #C5527A",
"[  c #E5487E",
"{  c #358B5A",
"}  c #5A8973",
"|  c #739073",
" . c #639C63",
".. c #77EB7C",
"X. c #8E907C",
"o. c #9CAD65",
"O. c #B4AF72",
"+. c #9E995A",
"@. c #C9A97C",
"#. c #B0EF72",
"$. c #8FF174",
"%. c #D3FC79",
"&. c #FEF769",
"*. c #FAEC7B",
"=. c #F8F877",
"-. c #EDFF79",
";. c #7F7F81",
":. c #FE3F8C",
">. c #907886",
",. c #B2748C",
"<. c #D85888",
"1. c #DB5D93",
"2. c #CF5487",
"3. c #ED4A85",
"4. c #E44C8A",
"5. c #E94888",
"6. c #F44B8C",
"7. c #F7458A",
"8. c #E6548B",
"9. c #EB4C94",
"0. c #FC4A92",
"q. c #F54795",
"w. c #E65793",
"e. c #F65395",
"r. c #F15086",
"t. c #C6668A",
"y. c #D9668B",
"u. c #D8758C",
"i. c #D96192",
"p. c #DA7495",
"a. c #CC6E90",
"s. c #E86697",
"d. c #FA6897",
"f. c #EA7599",
"g. c #F46E91",
"h. c #F653A5",
"j. c #FA6DA4",
"k. c #739691",
"l. c #5BA999",
"z. c #71AE88",
"x. c #5B9BA7",
"c. c #5597A0",
"v. c #70CF90",
"b. c #72F194",
"n. c #74EBA6",
"m. c #6BFEAC",
"M. c #6FF8B0",
"N. c #5ADFA9",
"B. c #73CCD1",
"V. c #5BF6CF",
"C. c #72EFD2",
"Z. c #6FDDEA",
"A. c #74EFEC",
"S. c #5EF0E3",
"D. c #359AA2",
"F. c #898989",
"G. c #9B8C91",
"H. c #989696",
"J. c #8F9789",
"K. c #A9959B",
"L. c #AB8F90",
"P. c #9EB097",
"I. c #ADAA94",
"U. c #B19AA4",
"Y. c #9AA4A4",
"T. c #9BAEB6",
"R. c #9AB7AE",
"E. c #ACADAD",
"W. c #A7A7A8",
"Q. c #B6A7AA",
"!. c #ABABB6",
"~. c #B4ADB3",
"^. c #AAB5B4",
"/. c #B4B3B4",
"(. c #BBBABB",
"). c #B7B5B7",
"_. c #B3B3AD",
"`. c #859FA0",
"'. c #C38F95",
"]. c #C7B490",
"[. c #DA9EB3",
"{. c #CB97A7",
"}. c #EB93B0",
"|. c #C6A9B5",
" X c #C4B5B7",
".X c #D0AAB2",
"XX c #E8A7B8",
"oX c #8AD998",
"OX c #90F791",
"+X c #ACF28A",
"@X c #8EDAAC",
"#X c #A9C2B9",
"$X c #B5CDAE",
"%X c #8EF2B0",
"&X c #B0D993",
"*X c #D3F48F",
"=X c #FBF899",
"-X c #EAF28B",
";X c #CAC8B1",
":X c #D2FBAD",
">X c #FAF8A4",
",X c #FCFDB5",
"<X c #E8EFAA",
"1X c #B4BEC1",
"2X c #C7BBC4",
"3X c #D5B9C3",
"4X c #F8B7CD",
"5X c #92D9CF",
"6X c #AAD0CF",
"7X c #8AF1D1",
"8X c #86F7FE",
"9X c #8CEBED",
"0X c #A9F0EB",
"qX c #CAC8C9",
"wX c #D7CACB",
"eX c #D7CCD4",
"rX c #D7D5D4",
"tX c #C6D2C4",
"yX c #E5C5CD",
"uX c #E8CAD3",
"iX c #F7C7D8",
"pX c #E8DADC",
"aX c #F2D5DC",
"sX c #FFC3CC",
"dX c #D9E6D1",
"fX c #E8E4DD",
"gX c #EADAE3",
"hX c #FEDBE5",
"jX c #F8DAE6",
"kX c #FAD3E7",
"lX c #DCEEEF",
"zX c #E7E8E7",
"xX c #F3E4EA",
"cX c #FCE4EB",
"vX c #F7E9E9",
"bX c #EAF2EB",
"nX c #F9F7ED",
"mX c #FEE4F4",
"MX c #F5EBF1",
"NX c #FEECF4",
"BX c #FEEDFC",
"VX c #F6EEFB",
"CX c #EDF2F1",
"ZX c #ECFCF4",
"AX c #EEFEFC",
"SX c #EAF7F9",
"DX c #F4F4F3",
"FX c #FDF4F5",
"GX c #F4FDF4",
"HX c #FCFEF4",
"JX c #F5F5FA",
"KX c #FEF5FD",
"LX c #F4FEFD",
"PX c #FEFEFE",
"IX c #E2E1F3",
"UX c #C9DDE4",
/* pixels */
"AXLXGXPXPXHXGXGXPXHXKXNXKXKXLXLXPXKXPXKXPXGXHXHXKXHXKXKXKXPXGXGXPXPXPXPXLXLXLXLXLXPXPXKXPXPXPXPXPXPXPXPXPXPXPXPXPXPXPXPXPXPXPXPX",
"LXLXPXPXHXKXPXLXU A H.LXPXPXLXPXKXPXPXPXPXHXHXHXKXPXPXPXPXPXGXLXPXPXPXPXPXPXLXPXPXPXPXPXPXPXPXPXPXPXPXPXPXPXPXPXPXPXPXPXPXPXPXPX",
"PXHXPXHXKXPXUXT.v v J 6XLXKXPXPXPXPXGXHXHXHXHXPXPXPXPXPXPXPXPXPXPXPXPXPXKXPXPXPXPXPXPXPXPXKXLXLXPXPXPXPXPXPXPXPXPXPXPXPXPXPXPXPX",
"KXPXPXKXPXPX^.: 5X0Xl., lXKXPXKXLXGXPXPXHXPXHXPXPXPXPXLXPXPXPXPXPXLXPXPXKXKXPXPXPXPXLXLXLXLXLXPXPXPXPXPXPXPXPXPXPXPXPXPXPXPXPXPX",
"KXPXPXKXKXPX1X: 5XC.C.5X: #XLXvXPXGXPXHXFXKXPXLXLXLXAXLXLXLXPXPXPXPXPXPXPXKXPXPXPXLXLXAXLXPXPXPXPXPXPXPXPXPXPXPXPXPXPXPXPXPXPXPX",
"PXHXPXPXKXKXIXT.n B.9XC.l.} J.HXGXZXPXPXPXPXPXJXLXLXAXLXLXPXPXHXPXPXPXPXPXPXPXPXLXLXAXLXLXPXPXKXPXPXPXPXPXPXPXPXPXPXPXPXPXPXPXPX",
"LXGXPXPXKXKXPXLXJ c.N.7X7X{ v &XHXLXKXKX2X~.eXKXLXLXLXZXGXHXHXHXHXLXPXLXPXPXPXPXPXLXLXLXPXPXKXPXPXPXPXPXPXPXPXPXPXPXPXPXPXPXPXPX",
"LXLXLXPXPXKXKXKXAXc n 7XM.OX .i dXGXMXgX1 - P KXDXDXvXnXnXvXvXvXFXKXLXLXLXLXPXPXPXPXPXPXPXPXKXPXPXPXPXPXPXPXPXPXPXPXPXPXPXPXPXPX",
"AXLXPXHXPXPXPXPXPXN v 7Xb.b.OX#.i * d p zXKXQ.+ t t t q q e e r @ wXDXbXLXLXKXPXPXKXPXJXJXLXPXPXPXPXPXPXPXPXPXPXPXPXPXPXPXPXPXPX",
"AXLXPXPXHXLXLXPXKXeXz.a OXOX$.#.o.* O * HXPXxX|.t y ^ ) ) / / ^ / ( K.PXLXLXtXB I V H.PXLXLXJXLXPXPXPXPXPXPXPXPXPXPXPXPXPXPXPXPX",
"LXPXPXHXGXGXGXLXFXHX_.O OX$.#.*X<Xo.g * I.fXFX[.Q _ y.w.8.y.1.1.s.Q ^ ~.^.#XR.F S N F.^.LXLXLXPXPXPXPXPXPXPXPXPXPXPXPXPXPXPXPXPX",
"PXPXPXHXGXZXZXLXKXKX;X* &X:X+X#.*X>X+.=   .X[.0 t.w.w.3.9.e.h.9.~ s.) @ 1 # U JXPXPX^.. SXGXPXPXPXPXPXPXPXPXPXPXPXPXPXPXPXPXPXPX",
"KXKXPXPXGXGXZXGXPXFXI.@ = o.-X=X-X,X@.9 ,.l z 1.w.5.5.7.6.q.q.9.6.w.Q r zXLXzXPXFXJX^.4 ZXLXPXBXPXPXPXPXPXPXPXPXPXPXPXPXPXPXPXPX",
"BXKXPXGXHXGXGXLXPXW.( Z 9 @.,X<X>X+.y ^ ,.~ 2.w.9.5.5.0.0.7.q.9.w.Q (  XPXPXPXPXKXKXfXW.P 6XPXKXPXPXPXPXPXPXPXPXPXPXPXPXPXPXPXPX",
"KXKXLXLXHXHXPXKXJXG k ,.R ' O.O.@.R Q s.4.9.h.q.q.e.6.r.[ r.5.4./ Z L.LXPXaXiX4X4XmXKXKX< E.PXPXPXPXPXPXPXPXPXPXPXPXPXPXPXPXPXPX",
"KXPXPXLXHXHXKXBXBX>.z a.] R 9 9 9 ' [ 2.5.h.q.q.q.7.6.[ 3.8.2.2.q qXPXcXBX{.f.u.p.4XKXxX7 ^.HXKXPXPXPXPXPXPXPXPXPXPXPXPXPXPXPXPX",
"PXLXLXPXPXPXPXNXk / a.2.4.2.<.] [ [ 3.r.4.4.9.4.5.0.7.0.5.<./ l mXMXKXhX}.f.g.g.u.sXFXnX> ^.PXKXPXPXPXPXPXPXPXPXPXPXPXPXPXPXPXPX",
"LXLXPXHXPXPXPXmXw / 1.4.9.9.9.9.r.e.5.8.<.~ ! w.4.9.0.5.1.t.( @ jXPXmXXXg.g.d.d.u.sXHXLX$ !.KXKXPXPXPXPXPXPXPXPXPXPXPXPXPXPXPXPX",
"PXPXPXPXKXPXPXmXw / 1.4.q.:.0.q.0.6.8.w.1.E u _ 1.4.4.2.<._ >.` NXhXXXp.g.d.j.j.f.sXcXE.U qXKXKXPXPXPXPXPXPXPXPXPXPXPXPXPXPXPXPX",
"PXKXKXPXPXKXPXBXw / i.4.7.:.0.:.0.r.8.<.t.Q w 0 _ ,.2.a.,.l ( BXFX.Xu.f.d.d.j.s.t.hX XO LXLXPXKXPXPXPXPXPXPXPXPXPXPXPXPXPXPXPXPX",
"PXHXPXPXPXPXPXBXr / i.4.7.:.0.:.7.5.w.a.0 ,.kX4Xw 0 0 @ @ U.KXFXFX[.u.}.j.j.j.p.hXKXqX1 GXCXKXKXPXPXPXPXPXPXPXPXPXPXPXPXPXPXPXPX",
"PXPXPXPXKXLXLXMXr / t.4.6.:.0.0.5.s.) y ,.eXkXIX|.3X|.|.2XcXKXFXnXXX'.] j.s.f.iXKXI.1 = GXLXHXPXPXPXPXPXPXPXPXPXPXPXPXPXPXPXPXPX",
"PXLXPXLXLXLXLXMXw / 1.4.6.7.6.8.<._ / ` cXMXVXKXKXPXKXKXKXKXPXPXnXyX}.XX4X}.4XnX].D g | I.<XHXHXPXPXPXPXPXPXPXPXPXPXPXPXPXPXPXPX",
"PXHXPXLXLXLXKXcXw ) 8.3.6.5.4.<.2.y ( KXHXPXPXKXMXMXCXbXAXzXCXPXHXNXKXNXmXFXnXdX* O.,X-X* I.nXZXPXPXPXPXPXPXPXPXPXPXPXPXPXPXPXPX",
"PXFXPXPXGXPX Xw _ 2.6.7.7.8.2.t.0 U.KXnXLXPXPXPXt t p 5 p 4 k.PXPXKXmXuXwXHX;X* *X-X=X-X>Xh D GXPXPXPXPXPXPXPXPXPXPXPXPXPXPXPXPX",
"KXKXPXHXLXPXQ.@ t.1.3.7.[ w._ l {.pXPXGXLXPXrXC < o . 4 > $ 2 T F eXKXVXrXX.D o.-X=.*.*.>Xf D HXHXPXPXPXPXPXPXPXPXPXPXPXPXPXPXPX",
"KXPXPXKXKXPXwX` ) ] 8.e.w._ ^ ` PXDXLXLXLXqX` + I I M 4 $ 4 2 1 G 2XVXPXdXd g =X=.&.&.&.>Xf Z HXPXPXPXPXPXPXPXPXPXPXPXPXPXPXPXPX",
"PXLXPXPXPXPXBXmXw ) t.] ,.l H PXLXLXLXLXLXY + 6 NXKX$Xo 5 $ > 7 VXKXPXVXbXg g =X=.&.&.*.=Xf D FXPXPXPXPXPXPXPXPXPXPXPXPXPXPXPXPX",
"LXLXJXLXPXLXPXPXKXH q e q U.PXSXZXLXLXDXPXP O 6 CXPX/.o 2 2 X 1   ~.PXKXzXd f >X*.=.&.-.=Xg S PXPXPXPXPXPXPXPXPXPXPXPXPXPXPXPXPX",
"AXLXLXPXPXPXLXJXPX2XU.|.@ ~.LXLXZXLXPXFXKXY X 1 P U N 2 O F.F.< W.zXPXKXKX.X+.W =.-.-.%.*Xd S LXPXPXPXPXPXPXPXPXPXPXPXPXPXPXPXPX",
"LXLXPXPXFXPXPXLXLXLXPXPX7 ~.KXLXLXLXPXKXPXI o , # O : 7 M xXwX> HXGXJXPXKXcX'.@ -X-X*X#.+Xa A LXLXPXPXPXPXPXPXPXPXPXPXPXPXPXPXPX",
"LXJXPXPXKXKXPXLXLXLXLXrXj !.LXPXPXPXPXNXKXY 2 4 p 5 5 6 PXPXW.6 fXHXPXKXKXkX@.= *X*X+X$.OXs K LXPXPXPXPXPXPXPXPXPXPXPXPXPXPXPXPX",
"PXPXPXPXPXPXPXPXGXPX6X2 zXHXPXKXPXPXPXPXPXLXY.$ JXLXHXPXPXP N PXnXHXHXHXPXNXX.= :X+Xb.OXb.s v HXHXHXKXPXPXJXPXPXPXPXPXPXPXPXPXPX",
"PXPXPXPXPXPXPXPXPXFXQ.1 PXF.F.PXPXKXPXPXHXLXzXW.L P P C C F.rXPXHXHXPXHXKXxXL.  ;XOXb.b.m.v.} | HXnXMXPXPXLXPXPXPXPXPXPXPXPXPXLX",
"PXPXPXPXPXPXPXPXFXPX(.X PXF.J.PXPXDXPXPXJXPXPXHXP L L L N 2XPXNXHXnXKXLXPXvX XD | oX%Xm.b.%Xk.# ZXPXPXJXPXKXLXPXPXPXPXPXPXPXPXPX",
"PXPXPXPXPXPXPXPXKXHXE.5 zXKXKXLXLXJXPXPXPXPXPXPXLXLXJXPXFXKXmXBXNXHXPXPXMXMXaX;X&  .oXoXn.@XJ.5 zXzXCXPXJXPXPXPXPXPXPXLXLXPXPXLX",
"PXPXPXPXPXPXPXPXLXPX).< PXPXPXLXLXLXLXPXPXPXKXKXCXPXPXKXKX3X,.{.'.uXKXBXgXkXmXaX= 4 i i % # > 8 > 5 > 2 8 1XPXDXPXLXPXLXPXPXPXPX",
"PXPXPXPXPXPXPXPXPXHXrXE.F rXPXJXAXLXLXFXKXKXPXPXLXPXPXFXKXXX'.a.,.iXKXBXxX>.k V |.I.P.R.#XE.!.2X1X^.E.1X~.` K.PXPXPXPXPXPXLXPXPX",
"PXPXPXPXPXPXPXPXLXPXPXJXL J.eXLXZXLXLXPXPXPXPXPXPXLXLXPXBXyX[.XX[.mXBXVX!.;.G ` PXHXGXGXLXLXKXPXDXPXPXNXPX>.I  XKXPXLXPXPXPXPXPX",
"PXPXPXPXPXPXPXPXPXPXKXHXPXT N HXCXZXDXDXDXDXMXDXDXPXFXPXKXKXmXBXKXKXVXVX> ).PXKXKXHXLXLXZXLXPXKXPXPXNXFXKXFXG.3 KXKXPXPXPXPXHXPX",
"PXPXPXPXPXPXPXPXPXHXPXPXLXPXE.X 1 1 < 1 > 2 2 5 rXKXHXMXPXKXFXKXKXKXE.> SXAXLXPXPXPXGXGXLXLXPXKXPXKXPXFXuXfXK.+ MXPXKXKXPXPXPXHX",
"PXPXPXPXPXPXPXPXPXHXPXKXJXPXzXW.(.W._.(.E.^././.L qXPXKXPXPXKXPXPXPXzX^.ZXLXPXHXFXPXnXPXPXPXPXPXKXcXaXvXfXX.` qXFXPXPXPXPXKXHXPX",
"PXPXPXPXPXPXPXPXPXPXPXPXPXPXPXPXKXPXPXPXLXLXGXKXO W.KXPXKXPXPXPXPXnXLXPXbXGXPXHXPXKXPXPXPXHXKXPXKXcX$XJ.P.s c qXJXPXVXBXPXPXPXHX",
"PXPXPXPXPXPXPXPXPXPXPXLXPXPXHXPXPXNXMXJXPXDXvXMXk  XPXPXKXLXLXLXPXPXGXPXPXHXHXPXGXGXPXFXMXPXKXfXwXwXJ.* & & s 4 dXPXKXPXPXPXHXGX",
"PXPXPXPXPXPXPXPXPXPXHXKXPXPXHXPXKXPXPXKXKX` 3 t  XxXKXPXPXPXLXLXLXAXLXbXPXPXLXLXLXZXLXLXKXPX_.+ p = A @X%XoXoX@Xp ^.VXBXKXPXHXGX",
"PXPXPXPXPXPXPXPXPXPXPXHXPXPXPXPXLXCXPXPXG ` U.K.hXmXLXPXPXPXLXLXAXLXLXLXPXHXPXLXLXLXLXSXU C Y K.$ A z.%Xb.m.n.@X# ^.PXKXKXPXLXGX",
"PXPXPXPXPXPXPXPXHXPXPXPXPXPXPXLXLXLXpXQ.Z .XhXhXiXxXHXPXKXPXPXPXLXPXPXPXPX3XQ.).).1X!.W.G m >.xX, z.%XM.m.m.M.n.% R.KXBXPXPXHXGX",
"PXPXPXPXPXPXPXPXPXPXPXPXJXPXPXLXLXLX!.- hXiXiXiXwXcXPXPXPXPXPXKXPXLXPXmXKX` + 3 3 - 2 k yXcXhX;X,  .%Xm.V.N.M.C.% 6XPXPXPXPXGXLX",
"PXPXPXPXPXPXPXPXPXPXPXPXPXPXPXPXPXY M aXuXiXiXjX3  XPXGXLXPXKXPXPXLXPXPXKXFXxXyXuX;XyXaXuXuXhXrXi { C.V.V.C.9X5X: W.GXGXLXPXPXKX",
"PXPXPXPXPXPXPXPXPXPXPXPXPXPXPXPXFXP V aXkXmX.Xm - ).JXLXDXPXPXKXPXLXLXPXPXPXPXvXFXcXNXaXiXuX|.N z.N.C.V.S.9XB.K T.lXGXZXGXPXKXKX",
"PXPXPXPXPXPXPXPXPXPXPXPXPXPXPXPXPXG V aXaX{.>.H + E.LXPXJXPXPXPXKXLXKXLXPXKXFXKXPXKXKXNXcXcXL.8 %XC.V.A.Z.8Xc.: LXPXGXGXLXLXKXKX",
"PXPXPXPXPXPXPXPXPXPXPXPXPXPXPXPXPXP C gXaXV ( FX3 /.LXzXLXHXMXKXKXPXFXPXMXPXHXPXFXFXHXPXFXcXU.> 5X9XS.C.Z.9Xx.c SXPXLXHXGXPXPXKX",
"PXPXPXPXPXPXPXPXPXPXPXPXPXPXPXPXPXP M aXhXV H KX2 W.E.c fXKXPXPXPXKXPXKXfXrXbXHXPXHXKXPXKXMXK.4 B.A.A.9X9Xb b LXZXPXPXGXHXHXHXHX",
"PXPXPXPXPXPXPXPXPXPXPXPXPXPXPXPXPXC M jXaXV ` NX+ W.W.> CXHXwXP xXjXNXxXfX` G.HXPXPXPXHXPXPX!.: 8XA.8X9Xb k.UXLXPXLXPXLXHXHXHXHX",
"PXPXPXPXPXPXPXPXPXPXPXPXPXPXPXPXPXL M xXeXm I PXI H.T 5 CXPX~.o G.U.K.G.U.I Y (.FXPXPXJXLXLX1X, Z.A.Z.x.: 1XJXJXPXLXKXPXPXHXHXnX",
"PXPXPXPXPXPXPXPXPXPXPXPXPXPXPXPXHXT m pXcXG C KXPXY o 5 zXPX/.+ 3 3 ; + + Q.Q.+ xXKXPXLXAXSXT.x Z.A.x.: 5 1XKXLXPXPXPXPXHXHXGXGX",
"PXPXPXPXPXPXPXPXPXPXPXPXPXPXPXPXPXN M zXxXM N PXKXPXE.> CXPX/.7 zXHX_.3  XvXU.@ + 2XPXJXAXJ c 5XZ.8Xx.: zXPXHXHXPXPXPXPXPXPXLXGX",
"PXPXPXPXPXPXPXPXPXPXPXPXPXPXPXPXPXqXH.M B G.wXKXPXKX(.1 DXPXE.X vXDX X2 yXuXK.q Q.G.G.LXAXJ b 0X9XD.c.6XFXFXFXHXPXLXPXKXKXPXLXLX",
"PXPXPXPXPXPXPXPXPXPXPXPXPXPXPXPXPXPXqXC N qXPXPXLXFX(.2 CXFX(.1 LXPXE.3 yXcXL.; KXH B PXSXK c 0X9Xn J AX_.aXHXPXPXPXPXPXPXPXPXLX",
"PXPXPXPXPXPXPXPXPXPXPXPXPXPXPXPXKXHXPXPXPXPXKXPXPXKX).- HXPX^.2 bXLX/.2  XaXU.t KXG G LXAXJ c 5X0Xn J zX7 I.HXPXPXPXPXPXPXPXPXLX",
"PXPXPXPXPXPXPXPXPXPXPXPXPXPXPXPXPXKXLXLXPXLXJXPXDXPX).2 KXLXE.p CXPX!.2 NXI C NXKXG L LXSXU : , 6X6Xk.j pXPXPXDXPXPXPXPXPXPXPXLX",
"PXPXPXPXPXPXPXPXPXPXPXPXPXPXPXPXPXPXPXPXPXLXPXPXPXPX~.O P P r > zXKX~.  N X G PXPXG - T F Y.!.!.K c ;.1XJXPXKXLXPXPXPXPXPXPXPXPX",
"PXPXPXPXPXPXPXPXPXPXPXPXPXPXPXPXPXFXLXPXLXLXGXPXPXPXqXL L P P ;.PXPXqXT L Y H.LXLXY.L P F eXKXPXU K k.SXPXPXLXPXPXPXPXHXHXPXPXPX",
"PXPXPXPXPXPXPXPXPXPXPXPXPXPXPXPXPXPXPXLXPXLXLXLXPXPXPXPXPXPXHXKXPXBXPXLXKXLXLXLXLXLXLXLXKXKXBXPXJXLXLXJXPXPXPXLXLXPXPXHXHXHXHXPX"
};
