/* XPM */
static char *_7b2d258bd604879d5f01fa04941304ciXOSTBxYNxosx8Ng[] = {
/* columns rows colors chars-per-pixel */
"64 64 207 2 ",
"   c #2F222C",
".  c #32252E",
"X  c #33282E",
"o  c #2F2936",
"O  c #342731",
"+  c #392730",
"@  c #352933",
"#  c #3A2B35",
"$  c #372B39",
"%  c #3F3138",
"&  c #45262E",
"*  c #4A262D",
"=  c #572830",
"-  c #423435",
";  c #46333D",
":  c #4A3C38",
">  c #642728",
",  c #6F3F25",
"<  c #395827",
"1  c #584739",
"2  c #714625",
"3  c #74632C",
"4  c #3F2F48",
"5  c #32316E",
"6  c #451F5E",
"7  c #483646",
"8  c #4D3E49",
"9  c #55344C",
"0  c #6F374F",
"q  c #663857",
"w  c #491E66",
"e  c #4E1C76",
"r  c #501B7B",
"t  c #2B5C5B",
"y  c #25466F",
"u  c #45404B",
"i  c #4E414B",
"p  c #51434D",
"a  c #564954",
"s  c #564C57",
"d  c #584B54",
"f  c #6D524C",
"g  c #61565F",
"h  c #756446",
"j  c #786748",
"k  c #684A67",
"l  c #685965",
"z  c #6A5C66",
"x  c #7B4E74",
"c  c #69646D",
"v  c #71636D",
"b  c #6E6C74",
"n  c #746A73",
"m  c #7C6A77",
"M  c #7C6C77",
"N  c #76707A",
"B  c #9B241E",
"V  c #AF291C",
"C  c #BD2B17",
"Z  c #B82418",
"A  c #873532",
"S  c #CA2915",
"D  c #CE3514",
"F  c #8B703B",
"G  c #DC5C10",
"H  c #D97E0E",
"J  c #E06D0F",
"K  c #E17311",
"L  c #E37511",
"P  c #E37B15",
"I  c #823555",
"U  c #8A774D",
"Y  c #927F50",
"T  c #814A7E",
"R  c #BD456E",
"E  c #80747D",
"W  c #43B510",
"Q  c #6ABE12",
"!  c #78B319",
"~  c #64BB23",
"^  c #6AC018",
"/  c #5AC136",
"(  c #69C021",
")  c #35BA40",
"_  c #E48411",
"`  c #E78A11",
"'  c #EDB61A",
"]  c #D2B03E",
"[  c #E1B820",
"{  c #D9C51C",
"}  c #CED01D",
"|  c #E4C61C",
" . c #ECCC1E",
".. c #E9D71F",
"X. c #D5C925",
"o. c #EBD130",
"O. c #998653",
"+. c #A38F56",
"@. c #AA9658",
"#. c #B39D5A",
"$. c #BBA55E",
"%. c #DBAE42",
"&. c #C4AC59",
"*. c #ECB34A",
"=. c #C3AE61",
"-. c #EFA266",
";. c #EDC14A",
":. c #F3D151",
">. c #D9C268",
",. c #E1C86A",
"<. c #EBD26D",
"1. c #5F1BDF",
"2. c #6E0DC7",
"3. c #720DD8",
"4. c #6124DE",
"5. c #5D1EE1",
"6. c #7B08E3",
"7. c #4B2EE1",
"8. c #5425E1",
"9. c #0C7EDF",
"0. c #095FE0",
"q. c #1A53E2",
"w. c #204DE1",
"e. c #0A79E3",
"r. c #1671E5",
"t. c #D62B8F",
"y. c #D93786",
"u. c #D82395",
"i. c #DA2D92",
"p. c #DB349E",
"a. c #DC389B",
"s. c #E23888",
"d. c #DD3AA1",
"f. c #90548D",
"g. c #8F6B8B",
"h. c #897885",
"j. c #947C8D",
"k. c #A762A4",
"l. c #D94987",
"z. c #DE48A8",
"x. c #18BEAD",
"c. c #16B7B5",
"v. c #25C196",
"b. c #18C1A9",
"n. c #18C3BA",
"m. c #3BC9AA",
"M. c #0C9DDF",
"N. c #0980E4",
"B. c #8D828C",
"V. c #90828C",
"C. c #988B95",
"Z. c #9E939B",
"A. c #A08D9A",
"S. c #A4929E",
"D. c #AC86A4",
"F. c #AB99A6",
"G. c #B19BA9",
"H. c #BD99B6",
"J. c #B7A2AD",
"K. c #BAA7B5",
"L. c #BCB2B9",
"P. c #D599A5",
"I. c #C2A9BB",
"U. c #E9ACAC",
"Y. c #E2CFB8",
"T. c #BEBBE8",
"R. c #EB9DD9",
"E. c #D2ACCA",
"W. c #D6ACCB",
"Q. c #C4B9C3",
"!. c #CBBAC6",
"~. c #D5BDCD",
"^. c #F0ABD8",
"/. c #F2B5DC",
"(. c #F2BADE",
"). c #CEA4E4",
"_. c #ECA5E0",
"`. c #ECABE2",
"'. c #EFB3E5",
"]. c #F1B9E5",
"[. c #C0CDDC",
"{. c #D6CAD4",
"}. c #DBD4DC",
"|. c #E9C6DD",
" X c #E4CDDC",
".X c #E5D2DE",
"XX c #EACAE1",
"oX c #F5C6E9",
"OX c #F5CAEA",
"+X c #EBD3E3",
"@X c #E3D9E2",
"#X c #ECD8E5",
"$X c #F2D6E9",
"%X c #F3DBEB",
"&X c #F9DBEE",
"*X c #F0CFF3",
"=X c #EED2F0",
"-X c #F5DAF4",
";X c #FADDF1",
":X c #ECE4EB",
">X c #F5E2EE",
",X c #FAE1EF",
"<X c #FBE5F2",
"1X c #F5E9F2",
"2X c #FCE9F5",
"3X c #FDEEF8",
"4X c #FBF1FA",
/* pixels */
"O O O O O O O O O O O O O O O O O O O O O O O O O O O O O O O X @ X O O O O O O O O O O O O O O O O O O O O O O O O O O O O O O ",
"O O O O O O O O O O O O O O O O O O O O O O O O O O O O O O X o O O O O O O O O O O O O O O O O O O O O O O O O O O O O O O O O ",
"O O O O O O O O O O O O O O O O O O O O O O O O @ . O O X # j % O O O O O O O O O O O O O O O O O O O O O O O O O O O O O O O O ",
"O O O O O O O O O O O O O O O O O O O O O O O O O @ . @ X : &.1 . O O O O O O O O O O O O O O O O O O O O O O O O O O O O O O O ",
"O O O O O O O O O O O O O O O O O O O O O O O O O O O O . - %.F - O O O O O O O O O O O O O O O O O O O O O O O O O O O O O O O ",
"O O O O O O O O O O O O O O O O O O O O O O O O O O O O . - %.;.1 O O O O O O O O O O O O O O O O O O O O O O O O O O O O O O O ",
"O O O O O O O O O O O O O O O O O O @ @ O . . O O @ O     - ] :.1 . O O O O O O . O O O O O O O O O O O O O O O O O O O O O O O ",
"O O O O O O O O O O O O O O O O O O .   7 v g O O . # 0 0 0 *.o.1 O @ O O O   a v p X O O O O O O O O O O O O O # O O O O O O O ",
"O O O O O O O O O O O O O O O O ; 1 O . l 1X{.g X + 0 l.l.R *.*.1 . X O X O p L.4XB.  X O O O O O O O O O O O O O O O O O O O O ",
"O O O O O O O O O O O O O O O O U @.O . l %X;X{.g 9 l.s.s.I ] :.F # . O . a Q.;X<Xj.. @ O O O O O O O O O O O O O O O O O O O O ",
"O O O O O O O O O O O O O O O . U #.  . z OX`.;X{.v y.s.s.l.*.:.*.f 9 & 8 I.<X'.oXV.. . O O O O O O O O O O O O O O O O O O O O ",
"O O O O O O O O O O O O O O O - +.=.: . d W.`.`.$X(.s.s.s.s.-.*.-.l.t.I I.&X'._.oXB.. @ O O O O O O O O O O O O O O O O O O O O ",
"O O O O O O O O O O O O O O O h ,.<.Y O + v oX_.'.oXa.u.y.s.i.u.s.s.s.t.^.].R._.OXV.. O O O O O O O O O O O O O O O O O O O O O ",
"O O O O O O O O O O O O O O O O Y #.- O . g W._._.oXz.u.u.u.u.u.u.u.u.d.^.'._.oX|.E O O   - : O O O O O O O O O O O O O O O O O ",
"O O O O O O O O O O O O O O O O U @.O O + + g W._.'.(.z.u.u.u.u.u.u.d.R.]._.OXXXh.# O O   j +.O O O O O O O O O O O O O O O O O ",
"O O O O O O O O O O O O O O O O U +.O O O O + l ~. X&X/.z.p.p.p.d.d.R.&X,X|.|.E # O O O $ U $.; O O O O O O O O O O O O O O O O ",
"O O O O O O O O O O O O O O O O - : X # - X X # 8 l |.+X(.(.]././.].-X#X$Xh.8 % O O O O h >.<.O.# O O O O O O O O O O O O O O O ",
"O O O O O O O O O O O O O O O O O O X h #.% @ @ O p Q.n  X<X<X<X<X<X>Xh.Q.m   O O O O O @ O.$.: X O O O O O O O O O O O O O O O ",
"O O O O O O O O O O O # O O O O O   f >.<.O.@ X O p !.z }.2X<X<X<X<X>XN K.m   O O O O O   j +.O O O O O O O O O O O O O O O O O ",
"O O O O O O O O O O O O O O O O O O % U =.1 X @ O s @X}.<X2X3X3X3X4X4X@X%XE O O O O O O O - : O O O O O O O O O O O O O O O O O ",
"O O O O O O O O O O O O O O O O O O O % 1 O O . i Q.=X2X2X2X1X1X2X2X2X2X-X{.z O O O O O O O O O O O O O O O O O O O O O O O O O ",
"O O O O O O O O O O O O O O O O O O O O O @ O . d #X*X<X>X,X2X1X>X<X>X,X*X-XM O O O O O O O O O O O O O O O O O O O O O O O O O ",
"O O O O O O O O O O O O O O O O O O O O O O O . d +X,X@XB.:X:XB.}.1XC.Q.<X;XM   O O O O O O O O O O O O O O O O O O O O O O O O ",
"O O O O O O O O O O O O O O O O O O O O O O O O s +X2X.Xp c b 4 c N u K.2X<XM   O O O O O O O O O O O O O O O O O O O O O O X # ",
"O O O O O O O O O O O O O O O O O O O O O O O O a +X2XXXp o o 4 o o $ L.2X<Xm . O O O O O O O O O O O O O O O O O O O O O O O O ",
"O O O O O O O O O O O O O O O O O O O O O   O   a $X<X>XF.4 $ , A : V..X2X<Xm . O O O O O O O O O O O O O O O O O O O O O O O O ",
"O O O O O O O O O O O O O O O O O O O O 7 f.x @ a +X<X<X>XK.F.U.U.J.+X<X<X&Xm . O O O O O O O O # X O O O O O O O O O O O O O O ",
"O O O O O O O O O O O O O O O O O O @   g `.H.# ; j.+X&X&X;X&X;X&X&X&X&X&XG.8 . O O O O O O O O O O O O O O O O O O O O O O O O ",
"O O O O O O O O O O O O O O O O O O O   z <X.Xh.O $ j.XX&X&X&X&X&X&X&X&XG.8 . q T 9 @ O O O O O O O O O O O O O O O O O O O O O ",
"O O O O O O O O O O O O O O O O O O O O i G.2X@XZ.C.F.%X<X<X<X<X<X<X<X<XG.C.s g.^.g.. o O O O O O O O O O O O O O O O O O O O O ",
"O O O O O O O O O O O O O O O O O O O O   i G.2X4X3X<X<X<X<X<X<X<X<X<X<X<X3XK.!.2XV.. O O O O O O O O O O O O O O O O O O O O O ",
"O O O O O O O O O O O O O O O O O O O O @ O i C.S.A.F.$X<X<X<X<X<X<X2X<XH.~.3X3X!.l . O O O O O O O O O O O O O O O O O O O O O ",
"O O O O O O O O O O O O O O O O O O O @ O O @ . o   8 @X<X<X<X<X<X<X<X>Xv v F.F.l . O O O O O O O O O O O O O O O O O O O O O O ",
"O O O O O O O O O O O O O O O O O O O . O O @ .   o 8 @X2X<X<X<X<X<X<X,Xv   . X O O O O O O O O O O O O O O O O O O O O O O O O ",
"O O O O O O O O O O O O O O O O O O . @ O O o ; n n O.=X<X<X<X<X<X<X<X,XA.n n 8 . O O O O O O O O O O O O O O O O O O O O O O O ",
"O O O O O O O O O O O O O O O O O O @ @ @   % h.>X<X,X<X<X<X<X,X>X<X2X2X>X2X1XF.8 O O O O O O O O O O O O O O O O O O O O O O O ",
"O O O O O O O O O O O O O O O O O O O O O O g :X$XK.H.I.1X2X-X,X&X,X&X{.I.H. X2XB.. X O O O O O O O O O O O O O O O O O O O O O ",
"O O O O O O O O # X O O O O O O O O O O O   s ].E.4 + 7 P.U. XY.[.T.).k X # D.OXg.. O O O O O O O O O O O O O O O O O O O O O O ",
"O O O O O O O O O O O O O O O O O O O O O O 9 k.f.# . & C P [ ~ n.r.4.w X O T k.k O O O O O O O O O O O O O O O O O O O O O O O ",
"O O O O O O O O O O O O O O O O O O O O O O O # # X + = C G H ! v.M.7.r $ X # # + O O O O O O O O O O O O O O O O O O O O O O O ",
"O O O O O O O O O O O O O O O O O O O O O O O O O O * Z Z S K | Q c.e.8.w . O O O O O O O O O O O O O O O O O O O O O O O O O O ",
"O O O O O O O O O O O O O O O O . @ O O O O O O O O & V S D K  .~ c.r.5.w . O O O O O O O O O O O O O O O O O O O O O O O O O O ",
"O O O O O O O O O O O O O O O O O O O O O O O O O O + = Z J _ X.m.9.8.3.w O O O O O O O O O O O O O O O O O O O O O O O O O O O ",
"O O O O O O O O O O O O O O O O O O O O O O O O O . * V D L { ~ c.r.1.e o O O O O O O O O O O O O O O O O O O O O O O O O O # O ",
"O O O X O O O O O O O O O O O O O O O O O O O O O O * C J | ( x.9.8.3.e o   O O O O O O O O O O O O O O O O O O O O O O O O O O ",
"O O O # O O O O O O O O O O O O O O O O O O O O O O * C K | ( b.9.q.5.2.w O O O O O O O O O O O O O O O O O O O O O O O O O O O ",
"O O O O O O O O O O O O O O O O O O O O O O O O O O * V D _ } / c.e.q.5.w O O O O O O O O O O O O O O O O O O O O O O O O O O O ",
"O O O O O O O O O O O O O O O O O O O O O O O O O O + > C K  .} / c.e.8.2.w O O O O O O O O O O O O O O O O O O O O O O O O O O ",
"O O O O O O O O O O O O O O O O O O O O O O O O O O & B S J `  .^ n.e.q.1.2.6 . O O O O O O O O O O O O O O O O O O O O O O O O ",
"O O O O O O O O O O O O O O O O O O O O O O O O O O * C S J `  .^ b.M.e.5.3.e   O O O O O O O O O O O O O X O O O O O O O O O O ",
"O O O O O O O O O O O O O O O O O O O O O O O O O & B S G P ' ..^ ) n.N.w.5.2.w X O O O O O O O O O O O O # O O O O O O O O O O ",
"O O O O O O O O O O O O O O O O O O O O O O O O O * Z S J _  ...^ W b.e.0.8.6.r X O O O O O O O O O O O O O O O O O O O O O O O ",
"O O O O O O O O O O O O O O O O O O O O O O O O O + > > , 2 3 3 < < t y 5 5 e 7 O O O O O O O O O O O O O O O O O O O O O O O O ",
"O O O O O O O O O X # O O O O O O O O O O O O O O O O O O O   O X X + X X X X X O O O O O O O O O O O O O O O O O O O O O O O O ",
"O O O O O O O O O O O O O O O O O O O O O O O O O O O O O O O O O O X X O O O O O O O O O O O O O O O O O O O O O O O O O O O O ",
"O O O O O O O O O O O O O O O O O O O O O O O O O O O O O O O O O X @ @ O O O O O O O O O O O O O O O O O O O O O O O O O O O O ",
"O O O O O O O O O O O O O O O O O O O O O O O O O O O O O O O O O O X O O O O O O O O O O O X O O O O O O O O O O O O O O O O O ",
"O O O O O O O O O O O O O O O O O O O O O O O O O O O O O O O O O O @ O O O O O O O O O O O # O O O O O O O O O O O O O O O O O ",
"O O O O O O O O O O O O O O O O # X O O O O O O O O O O O O O O O O O O O O O O O O O O O O O O O O O O O O O O O O O O O O O O ",
"O O O O O O O O O O O O O O O O O O O O O O O O O O O O O O O O O O O O O O O O O O O O O O O O O O O O O O O O O O O O O O O O ",
"O O O O O O O O O O O O O O O O O O O O O O O O O O O O O O O O O O O O O # X O O O O O O O O O O O O O O O O O # O O O O O O O ",
"O O O O O O O O O O O O O O O O O O O O O O O O O O O O O O O O O O O O O O O O O O O O O O O O O O O O O O O O X O O O O O O O ",
"O O O O O O O O O O O O O O O O O O O O O O O O O O O O O O O O O O O O O O O O O O O O O O O O O O O O O O O O O O O O O O O O ",
"O O X # O O O O O O O O O O O O O O O O O O O O O O O O O O O O O O O O O O O O O O O O O O O O O O O O O O O O O O O O O O O O "
};
