/* XPM */
static char *_87b0ea46ea440cfce666a3593e438d4FGPeuQPWdn6pcBre[] = {
/* columns rows colors chars-per-pixel */
"64 64 86 1 ",
"  c #030000",
". c #000003",
"X c #060707",
"o c #080103",
"O c gray3",
"+ c #18020A",
"@ c #041B07",
"# c #040510",
"$ c #1E0A11",
"% c #0E1011",
"& c #270411",
"* c #0D1032",
"= c #1D1035",
"- c #10143D",
"; c #292E31",
": c #353B3F",
"> c #570926",
", c #760C34",
"< c #0C5418",
"1 c #0D5818",
"2 c #0F661B",
"3 c #131748",
"4 c #212447",
"5 c #282C56",
"6 c #303466",
"7 c #53275A",
"8 c #40484D",
"9 c #484848",
"0 c #4C565B",
"q c #586369",
"w c #686868",
"e c #686869",
"r c #68696B",
"t c #860E3B",
"y c #A51148",
"u c #B5134E",
"i c #8B2149",
"p c #90224B",
"a c #E41762",
"s c #E41764",
"d c #E41865",
"f c #F4196C",
"g c #FC1A6D",
"h c #FC1A6F",
"j c #2DFD3A",
"k c #2DFD3B",
"l c #31EF41",
"z c #FED534",
"x c #2B33A1",
"c c #2F39AF",
"v c #2F39B1",
"b c #2F38B2",
"n c #3137B2",
"m c #313AB4",
"M c #3640B8",
"N c #4D53A5",
"B c #4B55D0",
"V c #616BE6",
"C c #6A73E3",
"Z c #6B75ED",
"A c #717BF3",
"S c #737CF6",
"D c #747EFA",
"F c #757FFA",
"G c #757FFB",
"H c #8698A0",
"J c #9EB2BC",
"K c #A0B3BD",
"L c #A9BFCA",
"P c #BAD3DF",
"I c #BBD3DF",
"U c #BCD2DF",
"Y c #BBD2E1",
"T c #BCD1E1",
"R c #BDD4E0",
"E c #D7D7D7",
"W c #CEDFE8",
"Q c #D0E0E8",
"! c #D0E0E9",
"~ c #D7E4ED",
"^ c gray97",
"/ c #FEF3FB",
"( c #FBFCFC",
") c #FFFEFC",
"_ c #FFFFFD",
"` c #FDFEFE",
/* pixels */
"hhhhhhhhhhhhhhhhhhhhhhhhhhhhhhhhhhhhhhhhhhhhhhhhhhhhhhhhhhhhhhhh",
"hhhhhhhhhhhhhhhhhhhhhhhhhhhhhhhhhhhhhhhhhhhhhhhhhhhhhhhhhhhhhhhh",
"hhhhhhhhhhhhhhhhhhhhhhhhhhhhhhhhhhhhhhhhhhhhhhhhhhhhhhhhhhhhhhhh",
"hhhhhhhhhhhhh...hhhhhhhhhhhhhhhhhhhhhhhhhhhhhhhhhhhhhhhhhhhhhhhh",
"hhhhhhhhhhhhh...hhhhhhhhhhhhhhhhhhhhhhhhhhhhhhhhhhhhhhhhhhhhhhhh",
"hhhhhhhhhhhhh..z..hhhhhhhhhhhhhhhhhhhhhhhhhhhhhhhhhhhhhhhhhhhhhh",
"hhhhhhhhhhhhh..z..hhhhhhhhhhhhhhhhhhhhhhhhhhhhhhhhhhhhhhhhhhhhhh",
"hhhhhhhhhhhhh..z..hhhhhhhhhhhhhhhhhhhhhhhhhhhhhhhhhhhhhhhhhhhhhh",
"hhhhhhhhhhhhhhh.zz..hhhf...hhhhhhhhhhhhhhhhhhhhhhhhhhhhhhhhhhhhh",
"hhhhhhhhhhhhhhh.zz..hhhf...hhhhhhhhhhhhhhhhhhhhhhhhhhhhhhhhhhhhh",
"hhhhhhhhhhhhhhh.zz..hh.XP..hhhhhhhhhhhhhhhhhhhhhhhhhhhhhhhhhhhhh",
"hhhhhhhhhhhhhhh.zz..hh.XI..hhhhhhhhhhhhhhhhhhhhhhhhhhhhhhhhhhhhh",
"hhhhhhhhhh............IIU..hhhhhhhhhhhhhhhhhhhhhhhhhhhhhhhhhhhhh",
"hhhhhhhho.bbcbbcbbcb.._(U..hhhhhhhhhhhhhhhhhhhhhhhhhhhhhhhhhhhhh",
"hhhhhhhho.bbbbbbbbcb.._)U..hhhhhhhhhhhhhhhhhhhhhhhhhhhhhhhhhhhhh",
"hhhhhhh.AFGFFFFFFFFF.._)U..hh...hhhhhhhhhhhhhhhhhhhhhhhhhhhhhhhh",
"hhhhhhh.AFFFFFFFFFFF..__P..gg...hhhghhhhhhhhhhhhhhhhhhhhhhhhhhhh",
"hhhhhhh.............___^.bc..cbb.....hhhhhhhhhhghhhhhhhhhhhhhhhh",
"hhhhhhhhh..II__________^.bbbmbbbvbbbv..hhh........>hhhhhhhhhhhhh",
"hhhhhhhhh..YI__________^.bbbcbbbbbbbm..hhh........>hhhhhhhhhhhhh",
"hhhh.....II_____.._____^.FFFGGGGvbbbbbb...vbbbbbc.>hhhhhhhhhhhhh",
"hhhh.....TU_____.._____^.FFFGGGGcvvvbbb...vvbmvbc.>hhhhhhhhhhhhh",
"hhy.II_____)____..______P..GGGGGGFFFGbbbbbFFFFF..hhhhhhhhhhhhhhh",
"hhy.II_^.__..___________R..GGGGGGFFFGGGGGFFFFAAhhhhhhhhhhhhhhhhh",
"hhy.II_^.__..___________Y..FFGGGGGGGGGGGFFFFF5.hhhhhhhhhhhhhhhhh",
"hhy.II_________________^.bbbbbbbbbbbbbbbbbbbb-.hhhhhhhhhhhhhhhhh",
"hhy.II_________________^.bbbbbbbbbbbbbbbbbbbb-.hhhhhhhhhhhhhhhhh",
"hhy.IY_________________^.FFbbFFGbbbbbbbbbbbb.ygghhhhhhhhhhhhhhhh",
"hhau::QQ_______________(H44VVFGGVVVVVvvbbbbb.yhhhhhhhhhhhhhhhhhh",
"hhhh..IU________________I..FFFGGGGGGGvvbbbbb.yhhhhhhhhhhhhhhhhhh",
"hhhhhh........._//______I..FFFFGGGGGGGGGmb..hhh.....hhhhhhhhhhhh",
"hhhhhh........._________I..FFFGGGGGGGGGGmc..hhh.....hhhhhhhhhhhh",
"hhhhhhhhh..______________IP.................h>.mcnnc..hhhhhhhhhh",
"hhhhhhhhh..______________~~eeeeeeeeewww00000t76BBBnm33tyhhhhhhhh",
"hhhhhhhhh..____________________________IYIIIoNFFFFcbcm.ohhhhhhhh",
"hhhhhhhhh.._______________________________UU...FFFFFmm.ohhh...hh",
"hhhhhhhhh.._______________________________YY;%.FFFGGbb. hhh...hh",
"hhhhhhhhh.._______________________________YYI8.FGFGGbbGA...c*.hh",
"hhhhhhhhhhh.._______________________________I8.CCFFGmMAZ###x=+hh",
"hhhhhhhhhhh.._______________________________I8...FGGFGmbncm.uhhh",
"hhhhhhhf....._______________________________Y8.gh.FFFFFFFFF.uhhh",
"hhhhhh+$EIL.._______________________________Y8.hh.FFFFFFFFF.uhhh",
"hhhhhh.O_YI.._______________________________I8.hhh.........hhhhh",
"hhhh.._____II.____________________________YY.yghhh.........hhhhh",
"hhhh..___UUII.__WW9__________________99_QW::uaghhhhhhhhhhhhhhhhh",
"hhhh..___IUII.__II.___________TIYYIII.._YY..hhhhhhhhhhhhhhhhhhhh",
"hhhh..__U.....__II.___________UIIIIII.._RI..gghhhhhhhhhhhhhhhhhh",
"hhhh..__I..tt.__II....................._RI..gghhhhhhiiiphhhhhhhh",
"hhhh.._)I..hh.__II.,,,,,,,,,,,,,,,.qq.._IU..hhhhhhhh.jlohhhhhhhh",
"hhhh.......hh.__II.hhhhhhhhhhhhhhh.II.._QU..hhhhhh.... ..shhhhhh",
"hhhh.......hh.__II.hhhhhhhhhhhhhhh.II.._II..hhhhhh.@jjjj.dhhhhhh",
"hhhh.......hh.__II.hhhhhhhhhhhhhhh.II.._II..hhhhhh.@jjjj.ahhhhhh",
"hhhhhh...hhhh.__II.hhhhhhhhhhhhhhh.IU.._IP..hhhhh..........hhhhh",
"hhhhhh&&&hhhh.EEJJ.hhhhhhhhhhhhhhh.JJ..EJJ..hhhhh.jjjjjjjj.hhhhh",
"hhhhhhhhhhhhh......hhhhhhhhhhhhhhh..........hhh,..1111111<..hhhh",
"hhhhhhhhhhhhh......hhhhhhhhhhhhhhh..........hhh,.2222222222.hhhh",
"hhhhhhhhhhhhh......hhhhhhhhhhhhhhh..........hhh,.jjjjjjjjjj.hhhh",
"hhhhhhhhhhhhhh....hhhhhhhhhhhhhhhhh.......hhhhh,.......... .hhhh",
"hhhhhhhhhhhhhhhhhhhhhhhhhhhhhhhhhhhhhhhhhhhhhhhhhhhhhhhhhhhhhhhh",
"hhhhhhhhhhhhhhhhhhhhhhhhhhhhhhhhhhhhhhhhhhhhhhhhhhhhhhhhhhhhhhhh",
"hhhhhhhhhhhhhhhhhhhhhhhhhhhhhhhhhhhhhhhhhhhhhhhhhhhhhhhhhhhhhhhh",
"hhhhhhhhhhhhhhhhhhhhhhhhhhhhhhhhhhhhhhhhhhhhhhhhhhhhhhhhhhhhhhhh",
"hhhhhhhhhhhhhhhhhhhhhhhhhhhhhhhhhhhhhhhhhhhhhhhhhhhhhhhhhhhhhhhh",
"hhhhhhhhhhhhhhhhhhhhhhhhhhhhhhhhhhhhhhhhhhhhhhhhhhhhhhhhhhhhhhhh"
};
